<svg width="30" height="30" viewBox="0 0 30 30" fill="none" xmlns="http://www.w3.org/2000/svg">
<path d="M15.0033 7.30838C10.7535 7.29499 7.30006 10.7358 7.28667 14.9866C7.27329 19.2374 10.7133 22.6916 14.9632 22.705C19.2131 22.7184 22.6665 19.2776 22.6799 15.0268C22.6933 10.776 19.2532 7.32177 15.0033 7.30838ZM14.9632 10.0128C17.7206 9.99944 19.9626 12.2286 19.976 14.9866C19.9894 17.7446 17.7607 19.9872 15.0033 20.0006C12.246 20.0139 10.0039 17.7848 9.99052 15.0268C9.97713 12.2688 12.2058 10.0262 14.9632 10.0128ZM21.2142 6.99375C21.2142 6.00301 22.0173 5.19971 23.0078 5.19971C23.9983 5.19971 24.8015 6.00301 24.8015 6.99375C24.8015 7.98449 23.9983 8.78779 23.0078 8.78779C22.0173 8.78779 21.2142 7.98449 21.2142 6.99375ZM29.8946 8.81457C29.7808 6.41136 29.232 4.28261 27.4718 2.52873C25.7184 0.774852 23.5901 0.225929 21.1874 0.105433C18.7111 -0.0351445 11.2889 -0.0351445 8.8126 0.105433C6.41662 0.219235 4.28834 0.768158 2.52817 2.52203C0.767987 4.27591 0.225878 6.40466 0.10541 8.80788C-0.0351366 11.2847 -0.0351366 18.7086 0.10541 21.1854C0.219186 23.5886 0.767987 25.7174 2.52817 27.4713C4.28834 29.2251 6.40993 29.7741 8.8126 29.8946C11.2889 30.0351 18.7111 30.0351 21.1874 29.8946C23.5901 29.7808 25.7184 29.2318 27.4718 27.4713C29.2253 25.7174 29.7741 23.5886 29.8946 21.1854C30.0351 18.7086 30.0351 11.2914 29.8946 8.81457ZM26.6955 23.843C26.1735 25.1551 25.1629 26.1659 23.8444 26.6947C21.8701 27.478 17.1852 27.2972 15.0033 27.2972C12.8215 27.2972 8.12995 27.4713 6.1623 26.6947C4.85053 26.1726 3.83993 25.1618 3.31121 23.843C2.52817 21.8682 2.70887 17.1823 2.70887 15C2.70887 12.8177 2.53486 8.12507 3.31121 6.15698C3.83324 4.84492 4.84384 3.8341 6.1623 3.30525C8.13664 2.52203 12.8215 2.70278 15.0033 2.70278C17.1852 2.70278 21.8767 2.52873 23.8444 3.30525C25.1562 3.8274 26.1668 4.83822 26.6955 6.15698C27.4785 8.13176 27.2978 12.8177 27.2978 15C27.2978 17.1823 27.4785 21.8749 26.6955 23.843Z" fill="#1B1B1B"/>
</svg>
