<?xml version="1.0" encoding="UTF-8"?>
<svg version="1.1" xmlns="http://www.w3.org/2000/svg" width="2000" height="2000">
<path d="M0 0 C2.03575342 0.54625056 4.07162481 1.09206162 6.10760498 1.63746643 C10.43144323 2.7966791 14.75448779 3.95878835 19.0769043 5.12329102 C25.92825885 6.96908149 32.78135966 8.8083276 39.63476562 10.64648438 C47.72829367 12.81762021 55.82147237 14.99004718 63.91413879 17.16439247 C75.89806298 20.38401961 87.88446238 23.59415345 99.875 26.7890625 C100.62320133 26.98842281 101.37140266 27.18778313 102.14227676 27.39318466 C105.83087035 28.37588702 109.51956172 29.35822172 113.20831299 30.34033203 C120.68878931 32.33202727 128.16865386 34.32601776 135.6484375 36.3203125 C136.7921261 36.62523306 136.7921261 36.62523306 137.95891953 36.93631363 C151.4144447 40.52400268 164.86766857 44.12027404 178.3203125 47.71875 C180.37182099 48.26749202 182.42332957 48.81623368 184.47483826 49.36497498 C187.611128 50.20388733 190.74741655 51.04280413 193.88370419 51.88172436 C197.07350934 52.73495833 200.26331704 53.58818278 203.453125 54.44140625 C205.0343836 54.86437799 205.0343836 54.86437799 206.64758682 55.29589462 C242.8418583 64.9772377 279.0465905 74.61884044 315.25579071 84.24418259 C346.35186244 92.51055459 377.43970301 100.80628768 408.51287079 109.15833282 C439.12548143 117.38621265 469.75553492 125.54764991 500.390625 133.69140625 C535.95944562 143.14701588 571.52350338 152.62003598 607.078125 162.12890625 C609.16891472 162.68803944 611.25970451 163.24717233 613.35049438 163.80630493 C628.96488487 167.98214428 644.57883795 172.15961827 660.19274902 176.33724976 C674.77592876 180.23908045 689.35924321 184.14040692 703.9428978 188.04046249 C706.03085648 188.59883859 708.11881069 189.1572314 710.20676041 189.71564102 C745.88321714 199.25692235 781.57030928 208.75789358 817.26104736 218.24559784 C848.35252488 226.51080559 879.43595175 234.80471593 910.50439072 243.15610123 C937.98458152 250.54274493 965.47859006 257.87650914 992.97939396 265.1860342 C1001.15925516 267.36033017 1009.33846585 269.53705958 1017.51733398 271.71508789 C1022.1091927 272.93773615 1026.70107609 274.16029172 1031.29296875 275.3828125 C1032.42129057 275.68324022 1033.54961239 275.98366795 1034.71212578 276.29319954 C1047.74209421 279.76203308 1060.77487769 283.21976835 1073.81393242 286.65429878 C1081.56823864 288.69694158 1089.32041302 290.74752066 1097.07094002 292.80445671 C1102.34887465 294.20454894 1107.62951969 295.59368077 1112.91264439 296.97405148 C1116.1306276 297.8178159 1119.34561699 298.67256158 1122.55985832 299.53045845 C1124.01866154 299.91749502 1125.47864531 300.30011767 1126.93994331 300.67762566 C1144.2604009 305.15765216 1158.2060492 311.91389436 1167.609375 327.7265625 C1176.44638698 344.43697611 1175.30099121 360.70055051 1170.296875 378.38671875 C1169.88792907 379.89432472 1169.48105256 381.40249328 1169.0760498 382.91116333 C1168.21078419 386.1213919 1167.33351727 389.32798665 1166.44677734 392.53234863 C1165.0663423 397.52905969 1163.72641425 402.5360583 1162.39453125 407.54589844 C1159.73983428 417.51964962 1157.0562132 427.48546182 1154.36793518 437.45020676 C1153.00777548 442.49382245 1151.64997638 447.5380736 1150.29199219 452.58227539 C1148.30724725 459.95394263 1146.32190047 467.32544721 1144.33576584 474.69674015 C1140.76064085 487.96579005 1137.19124001 501.2363721 1133.625 514.5078125 C1133.23262398 515.96797035 1133.23262398 515.96797035 1132.83232117 517.45762634 C1131.78147226 521.36821962 1130.73065207 525.27882061 1129.67987823 529.18943405 C1121.10913448 561.08653991 1112.52876264 592.98104677 1103.94003296 624.8733139 C1096.82654854 651.28777279 1089.72050178 677.70422458 1082.6195488 704.12205505 C1081.82809404 707.06652145 1081.03662215 710.01098323 1080.24514771 712.95544434 C1075.20685743 731.69914592 1070.16915919 750.44300652 1065.13271904 769.18720531 C1062.26065466 779.87618633 1059.38829868 790.56508896 1056.515625 801.25390625 C1056.25722336 802.21539204 1055.99882172 803.17687782 1055.73258972 804.16749954 C1047.61497634 834.37157316 1039.47937213 864.57076022 1031.33266449 894.76699829 C1023.42106113 924.0921415 1015.52382073 953.42111347 1007.640625 982.75390625 C1007.38195648 983.71639282 1007.12328796 984.67887939 1006.85678101 985.67053223 C1004.50140188 994.4348786 1002.14624024 1003.19928341 999.79129028 1011.96374512 C996.1364772 1025.56590975 992.48072224 1039.16782093 988.82421875 1052.76953125 C988.56652269 1053.72812798 988.30882664 1054.6867247 988.04332161 1055.67436981 C986.74210044 1060.51472833 985.44086287 1065.35508244 984.13961792 1070.19543457 C981.79613147 1078.91273284 979.45279057 1087.63007024 977.10943794 1096.34740448 C975.80733952 1101.19123999 974.50523179 1106.03507299 973.203125 1110.87890625 C972.68229162 1112.81640624 972.16145829 1114.75390624 971.640625 1116.69140625 C970.59895833 1120.56640625 969.55729167 1124.44140625 968.515625 1128.31640625 C968.25781124 1129.27547347 967.99999748 1130.23454069 967.73437119 1131.22267056 C967.21355064 1133.16012289 966.69273003 1135.09757521 966.17190933 1137.0350275 C964.86962965 1141.87950658 963.5673513 1146.72398602 962.26507568 1151.56846619 C959.92367172 1160.27851052 957.58225859 1168.9885524 955.24079514 1177.69858074 C953.94177345 1182.53082288 952.64275965 1187.36306713 951.34375 1192.1953125 C950.95776012 1193.63117297 950.95776012 1193.63117297 950.56397247 1195.09604073 C946.87140019 1208.8322634 943.17927763 1222.5686069 939.4874115 1236.30501938 C921.8376321 1301.97455155 921.8376321 1301.97455155 914.71875 1328.4140625 C914.5042753 1329.21062382 914.28980061 1330.00718513 914.06882668 1330.82788467 C911.93959021 1338.73568932 909.80996795 1346.64338998 907.67984104 1354.55095482 C902.40613727 1374.12875123 897.14220024 1393.70914528 891.88646317 1413.29177284 C887.36640982 1430.13275292 882.83888841 1446.97171059 878.30331421 1463.80851746 C875.90887759 1472.69773088 873.51817442 1481.58789999 871.13877392 1490.48115063 C869.66582009 1495.98430829 868.18253165 1501.48463397 866.69381714 1506.98355103 C866.1276574 1509.08147754 865.5651086 1511.18038271 865.00662231 1513.28036499 C860.11200892 1531.67275965 854.42591836 1547.41438845 837.078125 1557.50390625 C814.88894182 1569.59540317 793.48483863 1562.31148323 770.68359375 1556.1484375 C768.68926881 1555.61323114 766.69482478 1555.07846836 764.70027161 1554.54411316 C760.44487234 1553.40313728 756.19026621 1552.25926744 751.9362793 1551.11303711 C745.15085597 1549.28477545 738.36367251 1547.46311034 731.57617188 1545.64257812 C724.57232408 1543.76374222 717.56856564 1541.88457847 710.56539917 1540.00320435 C696.02769062 1536.09787144 681.48690025 1532.20436122 666.94140625 1528.328125 C665.5740439 1527.9637351 665.5740439 1527.9637351 664.17905807 1527.5919838 C659.62612838 1526.37879998 655.07310194 1525.16597971 650.52001953 1523.95336914 C641.29547117 1521.49655748 632.07152063 1519.03750314 622.84765625 1516.578125 C621.92333424 1516.33168118 620.99901222 1516.08523735 620.04668045 1515.83132553 C605.30935052 1511.90178071 590.57408133 1507.96456038 575.83984375 1504.0234375 C574.30592137 1503.61315402 574.30592137 1503.61315402 572.74101067 1503.19458199 C567.52187589 1501.79858715 562.30275936 1500.40252411 557.08364868 1499.00643921 C556.04156376 1498.72768826 554.99947884 1498.4489373 553.92581558 1498.16173935 C551.82056641 1497.59859711 549.71531891 1497.03544862 547.61007309 1496.47229385 C511.71435641 1486.87042261 475.80803897 1477.30881719 439.89742661 1467.7628212 C408.80236797 1459.49671043 377.71553665 1451.20125326 346.64337921 1442.84947968 C316.03076857 1434.62159985 285.40071508 1426.46016259 254.765625 1418.31640625 C219.19680438 1408.86079662 183.63274662 1399.38777652 148.078125 1389.87890625 C145.98733528 1389.31977306 143.89654549 1388.76064017 141.80575562 1388.20150757 C126.19136513 1384.02566822 110.57741205 1379.84819423 94.96350098 1375.67056274 C80.38032124 1371.76873205 65.79700679 1367.86740558 51.2133522 1363.96735001 C49.12539352 1363.40897391 47.03743931 1362.8505811 44.94948959 1362.29217148 C9.27303286 1352.75089015 -26.41405928 1343.24991892 -62.10479736 1333.76221466 C-93.19404228 1325.49760041 -124.2752837 1317.20445374 -155.34144592 1308.85349655 C-183.09406534 1301.39341856 -210.8609247 1293.98777795 -238.6343298 1286.60546207 C-246.89535304 1284.40950206 -255.15573246 1282.2111336 -263.41577148 1280.01147461 C-267.98809646 1278.79402532 -272.56044836 1277.57667719 -277.1328125 1276.359375 C-278.80402381 1275.91440579 -278.80402381 1275.91440579 -280.50899696 1275.46044731 C-293.4445114 1272.01686143 -306.38346468 1268.58701591 -319.32975769 1265.18417358 C-324.89599056 1263.72083078 -330.46001417 1262.2491852 -336.02322865 1260.77441216 C-340.22216093 1259.6619696 -344.42371478 1258.56037947 -348.62791443 1257.46802235 C-351.72998322 1256.65843327 -354.82752356 1255.83184554 -357.92578125 1255.0078125 C-358.9829837 1254.73721512 -360.04018616 1254.46661774 -361.12942505 1254.18782043 C-376.77879426 1249.9725756 -389.06748076 1242.38258099 -397.453125 1228.28125 C-406.29013698 1211.57083639 -405.14474121 1195.30726199 -400.140625 1177.62109375 C-399.73167907 1176.11348778 -399.32480256 1174.60531922 -398.9197998 1173.09664917 C-398.05453419 1169.8864206 -397.17726727 1166.67982585 -396.29052734 1163.47546387 C-394.9100923 1158.47875281 -393.57016425 1153.4717542 -392.23828125 1148.46191406 C-389.58358428 1138.48816288 -386.8999632 1128.52235068 -384.21168518 1118.55760574 C-382.85152548 1113.51399005 -381.49372638 1108.4697389 -380.13574219 1103.42553711 C-378.15099725 1096.05386987 -376.16565047 1088.68236529 -374.17951584 1081.31107235 C-370.60439085 1068.04202245 -367.03499001 1054.7714404 -363.46875 1041.5 C-363.20716599 1040.52656143 -362.94558197 1039.55312286 -362.67607117 1038.55018616 C-361.62522226 1034.63959288 -360.57440207 1030.72899189 -359.52362823 1026.81837845 C-350.95288448 994.92127259 -342.37251264 963.02676573 -333.78378296 931.1344986 C-326.67029854 904.72003971 -319.56425178 878.30358792 -312.4632988 851.88575745 C-311.67184404 848.94129105 -310.88037215 845.99682927 -310.08889771 843.05236816 C-305.05060743 824.30866658 -300.01290919 805.56480598 -294.97646904 786.82060719 C-292.10440466 776.13162617 -289.23204868 765.44272354 -286.359375 754.75390625 C-286.10097336 753.79242046 -285.84257172 752.83093468 -285.57633972 751.84031296 C-277.45872634 721.63623934 -269.32312213 691.43705228 -261.17641449 661.24081421 C-253.26481113 631.915671 -245.36757073 602.58669903 -237.484375 573.25390625 C-237.22570648 572.29141968 -236.96703796 571.32893311 -236.70053101 570.33728027 C-234.34515188 561.5729339 -231.98999024 552.80852909 -229.63504028 544.04406738 C-225.9802272 530.44190275 -222.32447224 516.83999157 -218.66796875 503.23828125 C-218.41027269 502.27968452 -218.15257664 501.3210878 -217.88707161 500.33344269 C-216.58585044 495.49308417 -215.28461287 490.65273006 -213.98336792 485.81237793 C-211.63988147 477.09507966 -209.29654057 468.37774226 -206.95318794 459.66040802 C-205.65108952 454.81657251 -204.34898179 449.97273951 -203.046875 445.12890625 C-202.52604162 443.19140626 -202.00520829 441.25390626 -201.484375 439.31640625 C-200.44270833 435.44140625 -199.40104167 431.56640625 -198.359375 427.69140625 C-198.10156124 426.73233903 -197.84374748 425.77327181 -197.57812119 424.78514194 C-197.05730064 422.84768961 -196.53648003 420.91023729 -196.01565933 418.972785 C-194.71337965 414.12830592 -193.4111013 409.28382648 -192.10882568 404.43934631 C-189.76742172 395.72930198 -187.42600859 387.0192601 -185.08454514 378.30923176 C-183.78552345 373.47698962 -182.48650965 368.64474537 -181.1875 363.8125 C-180.93017342 362.85525969 -180.67284683 361.89801937 -180.40772247 360.91177177 C-176.71515019 347.1755491 -173.02302763 333.4392056 -169.3311615 319.70279312 C-151.6813821 254.03326095 -151.6813821 254.03326095 -144.5625 227.59375 C-144.3480253 226.79718868 -144.13355061 226.00062737 -143.91257668 225.17992783 C-141.78334021 217.27212318 -139.65371795 209.36442252 -137.52359104 201.45685768 C-132.24989926 181.87910577 -126.98582705 162.29879542 -121.73027611 142.71616554 C-117.20952933 125.87189498 -112.67964765 109.03010018 -108.14253235 92.19023132 C-105.75286587 83.31896391 -103.36905839 74.44622785 -101.00344944 65.56851292 C-99.54267102 60.08779942 -98.07045797 54.61022793 -96.59249878 49.13412476 C-96.03235997 47.0500833 -95.47659539 44.96485983 -94.92581177 42.87832642 C-89.963141 24.08937565 -84.36298344 8.97367852 -66.921875 -1.49609375 C-44.60370737 -13.70487431 -22.92966185 -6.19573103 0 0 Z M29.68798828 434.60009766 C18.92971524 447.32272629 11.92133045 463.1497885 9.078125 479.50390625 C8.7378125 481.45296875 8.7378125 481.45296875 8.390625 483.44140625 C6.05905075 507.30283633 11.8876121 531.1133367 26.578125 550.31640625 C27.73620758 551.71936973 28.9025548 553.11556317 30.078125 554.50390625 C30.58601563 555.15617188 31.09390625 555.8084375 31.6171875 556.48046875 C44.61988486 572.55769553 65.35317215 582.40376741 85.38671875 586.1171875 C113.39175312 589.05104824 137.57146824 582.50213929 159.828125 565.19140625 C177.76940559 549.98825715 189.05900232 527.52118472 191.765625 504.31640625 C191.88891808 502.71359615 191.9936343 501.10922949 192.078125 499.50390625 C192.119375 498.74078125 192.160625 497.97765625 192.203125 497.19140625 C192.7982931 474.57501827 185.05496306 450.85697622 169.640625 434.06640625 C167.82176378 432.17035448 165.96104203 430.33861203 164.078125 428.50390625 C163.26472656 427.69308594 162.45132813 426.88226562 161.61328125 426.046875 C144.16180048 409.44392652 121.31301253 401.93659029 97.49023438 402.15234375 C70.75650048 402.88869755 47.32623965 414.79113707 29.68798828 434.60009766 Z M470.078125 673.50390625 C469.18996094 674.17164063 468.30179688 674.839375 467.38671875 675.52734375 C452.3108192 687.25553982 436.70045171 702.25925283 428.078125 719.50390625 C427.748125 697.72390625 427.418125 675.94390625 427.078125 653.50390625 C377.908125 653.50390625 328.738125 653.50390625 278.078125 653.50390625 C278.078125 818.50390625 278.078125 983.50390625 278.078125 1153.50390625 C327.248125 1153.50390625 376.418125 1153.50390625 427.078125 1153.50390625 C427.12710938 1133.78898437 427.17609375 1114.0740625 427.2265625 1093.76171875 C427.26195141 1081.2656208 427.29782108 1068.76952699 427.3359375 1056.2734375 C427.35594301 1049.70654341 427.37582705 1043.13964898 427.39550781 1036.57275391 C427.39797925 1035.74979533 427.40045069 1034.92683675 427.40299702 1034.07894003 C427.442626 1020.8240923 427.47540799 1007.56923613 427.50562482 994.31436397 C427.5368307 980.69308242 427.57547852 967.07183636 427.62091506 953.45059478 C427.64868021 945.05775273 427.67076458 936.66493638 427.68538751 928.27206098 C427.69599775 922.50270092 427.71389079 916.73339088 427.73729204 910.96406867 C427.75054877 907.64442025 427.75971813 904.32490169 427.76233864 901.00521851 C427.79441346 866.52157295 430.70760795 829.09977636 456.30859375 803.18359375 C474.70457458 785.38437958 497.77584515 778.59976733 523.078125 778.50390625 C547.66601075 779.22409398 567.07035439 786.63030272 584.109375 804.65234375 C609.15731839 834.36831296 607.19775093 878.74826816 607.28344727 915.10058594 C607.29304912 917.7143417 607.30306046 920.32809599 607.31344604 922.94184875 C607.33500012 928.52636765 607.35321926 934.110889 607.36905098 939.69542694 C607.39194487 947.76933099 607.4200584 955.84321054 607.44937026 963.91709355 C607.49680994 977.02235483 607.54013662 990.12762625 607.58081055 1003.23291016 C607.62028672 1015.94938951 607.66175175 1028.66585988 607.70581055 1041.38232422 C607.70856005 1042.17660257 607.71130956 1042.97088093 607.71414238 1043.78922832 C607.73566661 1050.00272654 607.7573047 1056.21622437 607.77897871 1062.42972207 C607.88484501 1092.78776519 607.98079693 1123.14583223 608.078125 1153.50390625 C658.898125 1153.50390625 709.718125 1153.50390625 762.078125 1153.50390625 C762.13643553 1095.25976851 762.13643553 1095.25976851 762.17578125 1037.015625 C762.17969641 1029.14501945 762.18373721 1021.27441397 762.18798828 1013.40380859 C762.18851578 1012.41749108 762.18904328 1011.43117357 762.18958676 1010.41496766 C762.19826191 994.53596511 762.21401649 978.6569772 762.23243059 962.77798331 C762.25119919 946.45596921 762.26225637 930.13396273 762.26630199 913.81193829 C762.26903268 903.757711 762.27762591 893.70352507 762.29395793 883.64931053 C762.30461094 876.734782 762.30770703 869.82027454 762.30512775 862.90573841 C762.30385926 858.92916367 762.30566506 854.95266067 762.31653595 850.97609901 C762.37250551 829.43415263 762.09420136 807.8538662 758.390625 786.56640625 C758.14070801 785.11391479 758.14070801 785.11391479 757.88574219 783.63208008 C751.29417564 747.41624642 736.75322425 714.0843334 711.078125 687.50390625 C710.21574219 686.57835937 709.35335938 685.6528125 708.46484375 684.69921875 C676.70542805 651.48122248 629.3607661 638.52823268 584.6328125 637.37890625 C543.54500209 636.65611662 502.68351572 647.88232458 470.078125 673.50390625 Z M23.078125 653.50390625 C23.078125 818.50390625 23.078125 983.50390625 23.078125 1153.50390625 C74.228125 1153.50390625 125.378125 1153.50390625 178.078125 1153.50390625 C178.078125 988.50390625 178.078125 823.50390625 178.078125 653.50390625 C126.928125 653.50390625 75.778125 653.50390625 23.078125 653.50390625 Z " fill="#FFFFFF" transform="translate(614.921875,222.49609375)"/>
<path d="M0 0 C-0.44189834 2.22288257 -0.88643188 4.44525374 -1.33886719 6.66601562 C-1.8215582 9.10014727 -2.27802097 11.53251672 -2.71582031 13.97460938 C-8.20354272 43.81756388 -8.20354272 43.81756388 -17.015625 50.90625 C-21.94665647 54.02221161 -27.20528419 56.30699798 -32.59375 58.51416016 C-38.00993365 60.87675288 -43.03466051 63.90099506 -48.11340332 66.90249634 C-51.05296805 68.6296001 -54.0200258 70.3081111 -56.984375 71.9921875 C-63.71027051 75.82754521 -70.41983548 79.69101746 -77.125 83.5625 C-78.19105469 84.17802734 -79.25710938 84.79355469 -80.35546875 85.42773438 C-83.57057523 87.28470194 -86.78535378 89.14223579 -90 91 C-102.76675218 98.37798612 -115.53930439 105.7447434 -128.34823608 113.04925537 C-138.77361619 118.99459245 -149.17536911 124.97793774 -159.52661133 131.05175781 C-164.10710818 133.73848824 -168.69593595 136.40321892 -173.328125 139 C-182.25821124 144.02188452 -190.4445501 149.00784134 -198 156 C-198.84691406 156.76699219 -199.69382812 157.53398438 -200.56640625 158.32421875 C-221.07197534 177.76537662 -231.87588499 205.56167282 -232.9609375 233.47265625 C-233.59457318 264.64887997 -218.11264497 289.1377008 -203.03497314 315.20861816 C-201.39290979 318.05078125 -199.75723631 320.89661305 -198.12109375 323.7421875 C-191.54445016 335.17263457 -184.92287828 346.57625398 -178.26904297 357.96191406 C-173.34924802 366.38597431 -168.47468788 374.8356965 -163.60546875 383.2890625 C-158.86071217 391.52116605 -154.07926497 399.73127902 -149.28491211 407.93457031 C-144.23680216 416.57868221 -139.23092285 425.24677144 -134.23632812 433.921875 C-133.65431641 434.9325 -133.07230469 435.943125 -132.47265625 436.984375 C-131.91191406 437.98863525 -131.35117188 438.99289551 -130.7734375 440.02758789 C-129.0469012 443.04564008 -129.0469012 443.04564008 -126.8671875 445.81420898 C-123.75260357 450.14830084 -121.60137583 453.62442643 -122.24536133 459.04638672 C-123.1039696 463.65540918 -124.47584997 468.09420092 -125.875 472.5625 C-126.31951418 474.09964301 -126.75965082 475.63805896 -127.1953125 477.17773438 C-128.03729697 480.12800333 -128.90311912 483.06910312 -129.79589844 486.00439453 C-131.30513863 490.97368126 -132.66745632 495.98075214 -134 501 C-134.66 501 -135.32 501 -136 501 C-136.55945313 499.9790625 -137.11890625 498.958125 -137.6953125 497.90625 C-143.14674094 488.00342107 -148.76030191 478.20533905 -154.47314453 468.45117188 C-158.84577866 460.98472604 -163.18272074 453.49857966 -167.5 446 C-172.30833565 437.65191088 -177.13905753 429.31756695 -182 421 C-190.02281678 407.26953183 -197.95858328 393.48921914 -205.89550781 379.70898438 C-212.56956544 368.12317831 -219.25516523 356.5447757 -226 345 C-228.33454955 341.00070848 -230.66780493 337.00066498 -233 333 C-233.63502441 331.91090332 -234.27004883 330.82180664 -234.92431641 329.69970703 C-239.31877796 322.15343092 -243.67848471 314.58828352 -248 307 C-248.47373047 306.1735498 -248.94746094 305.34709961 -249.43554688 304.49560547 C-255.39001208 294.03947503 -259.79140173 283.60488394 -263 272 C-263.21027832 271.27635254 -263.42055664 270.55270508 -263.63720703 269.80712891 C-273.55747728 234.51672969 -266.49950516 195.44790019 -249.04589844 163.81835938 C-232.1251563 134.40059854 -206.29730713 117.29877062 -177.43852234 101.06863403 C-171.26438653 97.59402811 -165.13087966 94.05029656 -159 90.5 C-150.01507334 85.30676435 -141.01354275 80.14333593 -132 75 C-118.64161987 67.37661796 -105.31676114 59.69583975 -92 52 C-79.23260869 44.62164452 -66.45941347 37.25452498 -53.64984131 29.949646 C-42.20819053 23.42476911 -30.80518986 16.83663452 -19.4375 10.18359375 C-18.12265625 9.41571533 -18.12265625 9.41571533 -16.78125 8.63232422 C-14.7559253 7.4436549 -12.73576967 6.24616504 -10.71875 5.04345703 C-9.09453125 4.08028564 -9.09453125 4.08028564 -7.4375 3.09765625 C-6.44621094 2.50605713 -5.45492188 1.91445801 -4.43359375 1.30493164 C-2 0 -2 0 0 0 Z " fill="#FFFFFF" transform="translate(348,558)"/>
<path d="M0 0 C0.66 0 1.32 0 2 0 C2.55945312 1.0209375 3.11890625 2.041875 3.6953125 3.09375 C9.14674094 12.99657893 14.76030191 22.79466095 20.47314453 32.54882812 C24.84577866 40.01527396 29.18272074 47.50142034 33.5 55 C38.30833565 63.34808912 43.13905753 71.68243305 48 80 C56.02281678 93.73046817 63.95858328 107.51078086 71.89550781 121.29101562 C78.56956544 132.87682169 85.25516523 144.4552243 92 156 C94.33454955 159.99929152 96.66780493 163.99933502 99 168 C99.63502441 169.08909668 100.27004883 170.17819336 100.92431641 171.30029297 C105.31877796 178.84656908 109.67848471 186.41171648 114 194 C114.47373047 194.8264502 114.94746094 195.65290039 115.43554688 196.50439453 C121.39001208 206.96052497 125.79140173 217.39511606 129 229 C129.31541748 230.08547119 129.31541748 230.08547119 129.63720703 231.19287109 C139.55747728 266.48327031 132.49950516 305.55209981 115.04589844 337.18164062 C98.1251563 366.59940146 72.29730713 383.70122938 43.43852234 399.93136597 C37.26438653 403.40597189 31.13087966 406.94970344 25 410.5 C16.01507334 415.69323565 7.01354275 420.85666407 -2 426 C-15.35838013 433.62338204 -28.68323886 441.30416025 -42 449 C-55.31676388 456.69584133 -68.64186249 464.37618998 -82 472 C-91.3854122 477.35699656 -100.76211641 482.72871118 -110.125 488.125 C-111.17300781 488.72828125 -112.22101563 489.3315625 -113.30078125 489.953125 C-118.92943591 493.20070583 -124.51212679 496.50368438 -130.03466797 499.92919922 C-132 501 -132 501 -134 501 C-133.55810166 498.77711743 -133.11356812 496.55474626 -132.66113281 494.33398438 C-132.1784418 491.89985273 -131.72197903 489.46748328 -131.28417969 487.02539062 C-125.79645728 457.18243612 -125.79645728 457.18243612 -116.984375 450.09375 C-112.0559237 446.97953039 -106.80067423 444.69609488 -101.41503906 442.49023438 C-95.95453007 440.10741003 -90.89457489 437.06419553 -85.77288818 434.04064941 C-82.82398695 432.30970419 -79.8477595 430.62701379 -76.875 428.9375 C-70.5591539 425.33285438 -64.27542495 421.67446783 -58 418 C-49.44455931 412.99245865 -40.85975664 408.03845089 -32.25 403.125 C-31.6667395 402.79211975 -31.083479 402.4592395 -30.48254395 402.11627197 C-25.72563102 399.40199484 -20.96709282 396.69057169 -16.20849609 393.97924805 C-2.26016773 386.03132546 11.68053983 378.07257504 25.52709961 369.94799805 C30.1074112 367.26130941 34.69609401 364.59669247 39.328125 362 C48.25821124 356.97811548 56.4445501 351.99215866 64 345 C64.84691406 344.23300781 65.69382812 343.46601562 66.56640625 342.67578125 C87.07197534 323.23462338 97.87588499 295.43832718 98.9609375 267.52734375 C99.59457318 236.35112003 84.11264497 211.8622992 69.03497314 185.79138184 C67.39290979 182.94921875 65.75723631 180.10338695 64.12109375 177.2578125 C57.54445016 165.82736543 50.92287828 154.42374602 44.26904297 143.03808594 C39.34924802 134.61402569 34.47468788 126.1643035 29.60546875 117.7109375 C24.86071217 109.47883395 20.07926497 101.26872098 15.28491211 93.06542969 C10.23680216 84.42131779 5.23092285 75.75322856 0.23632812 67.078125 C-0.34568359 66.0675 -0.92769531 65.056875 -1.52734375 64.015625 C-2.08808594 63.01136475 -2.64882812 62.00710449 -3.2265625 60.97241211 C-4.9530988 57.95435992 -4.9530988 57.95435992 -7.1328125 55.18579102 C-10.24739643 50.85169916 -12.39862417 47.37557357 -11.75463867 41.95361328 C-10.8960304 37.34459082 -9.52415003 32.90579908 -8.125 28.4375 C-7.68048582 26.90035699 -7.24034918 25.36194104 -6.8046875 23.82226562 C-5.96270303 20.87199667 -5.09688088 17.93089688 -4.20410156 14.99560547 C-2.69486137 10.02631874 -1.33254368 5.01924786 0 0 Z " fill="#FFFFFF" transform="translate(1786,942)"/>
<path d="M0 0 C5.6774742 1.28924308 11.34027436 2.63506283 17 4 C18.11890625 4.26796387 19.2378125 4.53592773 20.390625 4.81201172 C24.03534409 5.69212855 27.6741664 6.59387925 31.3125 7.5 C32.49884033 7.78431885 33.68518066 8.0686377 34.9074707 8.36157227 C36.02726318 8.64444092 37.14705566 8.92730957 38.30078125 9.21875 C39.30278564 9.46560547 40.30479004 9.71246094 41.3371582 9.96679688 C46.34591769 11.91023413 48.57441285 15.63208031 51.14453125 20.1640625 C51.73105469 21.19015625 52.31757812 22.21625 52.921875 23.2734375 C53.54578125 24.37945313 54.1696875 25.48546875 54.8125 26.625 C55.47718268 27.7920553 56.14255999 28.95871523 56.80859375 30.125 C58.19100803 32.5469809 59.57042515 34.97063154 60.94775391 37.39550781 C64.10394117 42.94639662 67.30420091 48.47185782 70.5 54 C71.748924 56.16393203 72.99762114 58.32799501 74.24609375 60.4921875 C74.86468262 61.56436523 75.48327148 62.63654297 76.12060547 63.74121094 C78.00980166 67.01699566 79.89764109 70.29355893 81.78515625 73.5703125 C88.40141117 85.05306897 95.04390011 96.51960901 101.73071289 107.96142578 C106.01244947 115.2931253 110.26212437 122.64287304 114.5 130 C120.55982429 140.51809553 126.6498644 151.01791785 132.78515625 161.4921875 C134.79371433 164.92305391 136.78245434 168.36355662 138.74609375 171.8203125 C155.14457648 200.54515042 177.95619826 219.94974141 210 229 C240.25080369 236.65736616 269.5664648 229.24285302 296 214 C296.86802246 213.49968262 297.73604492 212.99936523 298.63037109 212.48388672 C303.59713513 209.61031488 308.54917182 206.71225823 313.49609375 203.8046875 C320.25842529 199.83676733 327.06295774 195.94414755 333.875 192.0625 C336.24498271 190.71127229 338.61476255 189.35968942 340.984375 188.0078125 C341.56955399 187.67396545 342.15473297 187.34011841 342.75764465 186.99615479 C348.89073306 183.49504974 355.00919266 179.96869469 361.125 176.4375 C362.19105469 175.82197266 363.25710938 175.20644531 364.35546875 174.57226562 C367.57057523 172.71529806 370.78535378 170.85776421 374 169 C388.47523135 160.63467305 402.95951567 152.28614685 417.48803711 144.01367188 C423.4687069 140.60579895 429.4320744 137.17141824 435.37109375 133.69140625 C437.15404945 132.65002459 438.93724192 131.60904927 440.72045898 130.56811523 C442.39674509 129.58636883 444.06855185 128.59698675 445.74023438 127.60742188 C446.75279297 127.01638672 447.76535156 126.42535156 448.80859375 125.81640625 C449.69345459 125.29506104 450.57831543 124.77371582 451.48999023 124.23657227 C457.76392502 121.14567841 462.18865827 122.52298227 468.67578125 124.30859375 C469.6009404 124.55416519 470.52609955 124.79973663 471.47929382 125.05274963 C474.42651299 125.83754289 477.36943314 126.63729139 480.3125 127.4375 C482.31288584 127.97299687 484.31353432 128.50751367 486.31445312 129.04101562 C491.21275283 130.3493344 496.10725168 131.67107806 501 133 C501 133.99 501 134.98 501 136 C499.24121094 137.37182617 499.24121094 137.37182617 496.734375 138.79296875 C495.79609863 139.33236084 494.85782227 139.87175293 493.89111328 140.42749023 C492.33626221 141.29869507 492.33626221 141.29869507 490.75 142.1875 C489.6760498 142.80117432 488.60209961 143.41484863 487.49560547 144.04711914 C485.18879818 145.36380134 482.8801544 146.67633455 480.56738281 147.98242188 C477.06636635 149.96012449 473.57532007 151.9549569 470.0859375 153.953125 C465.99041657 156.29811777 461.89356289 158.64068663 457.79379272 160.97824097 C450.47509445 165.151508 443.17109903 169.34981888 435.875 173.5625 C434.80894531 174.17802734 433.74289062 174.79355469 432.64453125 175.42773438 C429.42942477 177.28470194 426.21464622 179.14223579 423 181 C409.09571421 189.03537392 395.1796502 197.04902998 381.23205566 205.00897217 C372.76804265 209.83999376 364.31533144 214.6901848 355.875 219.5625 C354.81603516 220.17375732 353.75707031 220.78501465 352.66601562 221.41479492 C347.18419584 224.58037047 341.70461793 227.74979011 336.2265625 230.921875 C329.8248582 234.62707863 323.41486251 238.31763253 317 242 C316.13342773 242.49935059 315.26685547 242.99870117 314.37402344 243.51318359 C289.37767885 257.87884148 265.14539652 266.45227458 236 266.375 C234.84130905 266.37418427 234.84130905 266.37418427 233.65921021 266.37335205 C221.36411675 266.33360687 209.86051352 265.4519405 198 262 C197.2668457 261.80164551 196.53369141 261.60329102 195.77832031 261.39892578 C176.13423015 256.01457747 158.63371217 245.9131742 143 233 C142.09636719 232.25621094 141.19273437 231.51242187 140.26171875 230.74609375 C127.05757624 219.40606548 117.62112116 204.94509739 109 190 C108.46101074 189.06849121 107.92202148 188.13698242 107.36669922 187.17724609 C104.20234313 181.70679702 101.04624698 176.2316461 97.89453125 170.75390625 C94.28668408 164.48868069 90.64888522 158.24139149 87 152 C81.50039448 142.59018505 76.04550744 133.15529333 70.60546875 123.7109375 C66.42650842 116.46048459 62.22252011 109.22516137 58 102 C49.97718322 88.26953183 42.04141672 74.48921914 34.10449219 60.70898438 C26.1803262 46.95305724 18.22755737 33.21465754 10.21875 19.5078125 C9.44144531 18.17411621 9.44144531 18.17411621 8.6484375 16.81347656 C7.45356065 14.77411624 6.24919417 12.74030636 5.0390625 10.70996094 C4.39710938 9.6274707 3.75515625 8.54498047 3.09375 7.4296875 C2.50271484 6.43952637 1.91167969 5.44936523 1.30273438 4.42919922 C0 2 0 2 0 0 Z " fill="#FFFFFF" transform="translate(556,1650)"/>
<path d="M0 0 C1.15869095 0.00081573 1.15869095 0.00081573 2.34078979 0.00164795 C14.63588325 0.04139313 26.13948648 0.9230595 38 4.375 C38.7331543 4.57335449 39.46630859 4.77170898 40.22167969 4.97607422 C59.86576985 10.36042253 77.36628783 20.4618258 93 33.375 C93.90363281 34.11878906 94.80726563 34.86257812 95.73828125 35.62890625 C108.94242376 46.96893452 118.37887884 61.42990261 127 76.375 C127.53898926 77.30650879 128.07797852 78.23801758 128.63330078 79.19775391 C131.79765687 84.66820298 134.95375302 90.1433539 138.10546875 95.62109375 C141.71331592 101.88631931 145.35111478 108.13360851 149 114.375 C154.49960552 123.78481495 159.95449256 133.21970667 165.39453125 142.6640625 C169.57349158 149.91451541 173.77747989 157.14983863 178 164.375 C186.02281678 178.10546817 193.95858328 191.88578086 201.89550781 205.66601562 C209.8196738 219.42194276 217.77244263 233.16034246 225.78125 246.8671875 C226.29945313 247.75631836 226.81765625 248.64544922 227.3515625 249.56152344 C228.54643935 251.60088376 229.75080583 253.63469364 230.9609375 255.66503906 C231.60289062 256.7475293 232.24484375 257.83001953 232.90625 258.9453125 C233.49728516 259.93547363 234.08832031 260.92563477 234.69726562 261.94580078 C236 264.375 236 264.375 236 266.375 C230.3225258 265.08575692 224.65972564 263.73993717 219 262.375 C217.88109375 262.10703613 216.7621875 261.83907227 215.609375 261.56298828 C211.96465591 260.68287145 208.3258336 259.78112075 204.6875 258.875 C203.50115967 258.59068115 202.31481934 258.3063623 201.0925293 258.01342773 C199.97273682 257.73055908 198.85294434 257.44769043 197.69921875 257.15625 C196.69721436 256.90939453 195.69520996 256.66253906 194.6628418 256.40820312 C189.65408231 254.46476587 187.42558715 250.74291969 184.85546875 246.2109375 C184.26894531 245.18484375 183.68242188 244.15875 183.078125 243.1015625 C182.45421875 241.99554688 181.8303125 240.88953125 181.1875 239.75 C180.52281732 238.5829447 179.85744001 237.41628477 179.19140625 236.25 C177.80899197 233.8280191 176.42957485 231.40436846 175.05224609 228.97949219 C171.89605883 223.42860338 168.69579909 217.90314218 165.5 212.375 C164.251076 210.21106797 163.00237886 208.04700499 161.75390625 205.8828125 C160.82602295 204.2745459 160.82602295 204.2745459 159.87939453 202.63378906 C157.99019834 199.35800434 156.10235891 196.08144107 154.21484375 192.8046875 C147.59858883 181.32193103 140.95609989 169.85539099 134.26928711 158.41357422 C129.98755053 151.0818747 125.73787563 143.73212696 121.5 136.375 C115.44017571 125.85690447 109.3501356 115.35708215 103.21484375 104.8828125 C101.20628567 101.45194609 99.21754566 98.01144338 97.25390625 94.5546875 C80.85542352 65.82984958 58.04380174 46.42525859 26 37.375 C-4.25080369 29.71763384 -33.5664648 37.13214698 -60 52.375 C-60.86802246 52.87531738 -61.73604492 53.37563477 -62.63037109 53.89111328 C-67.59713513 56.76468512 -72.54917182 59.66274177 -77.49609375 62.5703125 C-84.25842529 66.53823267 -91.06295774 70.43085245 -97.875 74.3125 C-100.24498271 75.66372771 -102.61476255 77.01531058 -104.984375 78.3671875 C-105.56955399 78.70103455 -106.15473297 79.03488159 -106.75764465 79.37884521 C-112.89073306 82.87995026 -119.00919266 86.40630531 -125.125 89.9375 C-126.19105469 90.55302734 -127.25710938 91.16855469 -128.35546875 91.80273438 C-131.57057523 93.65970194 -134.78535378 95.51723579 -138 97.375 C-152.47523135 105.74032695 -166.95951567 114.08885315 -181.48803711 122.36132812 C-187.4687069 125.76920105 -193.4320744 129.20358176 -199.37109375 132.68359375 C-201.15404945 133.72497541 -202.93724192 134.76595073 -204.72045898 135.80688477 C-206.39674509 136.78863117 -208.06855185 137.77801325 -209.74023438 138.76757812 C-210.75279297 139.35861328 -211.76535156 139.94964844 -212.80859375 140.55859375 C-213.69345459 141.07993896 -214.57831543 141.60128418 -215.48999023 142.13842773 C-221.76392502 145.22932159 -226.18865827 143.85201773 -232.67578125 142.06640625 C-233.6009404 141.82083481 -234.52609955 141.57526337 -235.47929382 141.32225037 C-238.42651299 140.53745711 -241.36943314 139.73770861 -244.3125 138.9375 C-246.31288584 138.40200313 -248.31353432 137.86748633 -250.31445312 137.33398438 C-255.21275283 136.0256656 -260.10725168 134.70392194 -265 133.375 C-265 132.385 -265 131.395 -265 130.375 C-263.24121094 129.00317383 -263.24121094 129.00317383 -260.734375 127.58203125 C-259.79609863 127.04263916 -258.85782227 126.50324707 -257.89111328 125.94750977 C-256.8545459 125.36670654 -255.81797852 124.78590332 -254.75 124.1875 C-253.13907471 123.26698853 -253.13907471 123.26698853 -251.49560547 122.32788086 C-249.18879818 121.01119866 -246.8801544 119.69866545 -244.56738281 118.39257812 C-241.06636635 116.41487551 -237.57532007 114.4200431 -234.0859375 112.421875 C-229.99041657 110.07688223 -225.89356289 107.73431337 -221.79379272 105.39675903 C-214.47509445 101.223492 -207.17109903 97.02518112 -199.875 92.8125 C-198.80894531 92.19697266 -197.74289062 91.58144531 -196.64453125 90.94726562 C-193.42942477 89.09029806 -190.21464622 87.23276421 -187 85.375 C-173.09571421 77.33962608 -159.1796502 69.32597002 -145.23205566 61.36602783 C-136.76804265 56.53500624 -128.31533144 51.6848152 -119.875 46.8125 C-118.81603516 46.20124268 -117.75707031 45.58998535 -116.66601562 44.96020508 C-111.18419584 41.79462953 -105.70461793 38.62520989 -100.2265625 35.453125 C-93.8248582 31.74792137 -87.41486251 28.05736747 -81 24.375 C-80.13342773 23.87564941 -79.26685547 23.37629883 -78.37402344 22.86181641 C-53.37767885 8.49615852 -29.14539652 -0.07727458 0 0 Z " fill="#FFFFFF" transform="translate(1208,84.625)"/>
</svg>
