<?xml version="1.0" encoding="UTF-8"?>
<svg version="1.1" xmlns="http://www.w3.org/2000/svg" width="4921" height="4921">
<path d="M0 0 C1.24538544 -0.00067474 2.49077087 -0.00134949 3.77389526 -0.00204468 C22.33365211 0.01391179 40.42903765 0.5399597 58.8125 3.25 C60.02873047 3.41628906 61.24496094 3.58257813 62.49804688 3.75390625 C95.73221133 8.32974735 127.2471428 17.04384118 158.8125 28.25 C160.54330811 28.86343262 160.54330811 28.86343262 162.30908203 29.48925781 C169.1934275 31.95343893 176.01815856 34.54804295 182.8125 37.25 C183.84987305 37.66040527 184.88724609 38.07081055 185.95605469 38.49365234 C221.42467038 52.65236617 253.73908873 72.40901044 283.06542969 96.80712891 C284.59443892 98.06990763 286.14333048 99.30853319 287.6953125 100.54296875 C294.09672716 105.63543743 300.05814819 111.12460401 305.98046875 116.75927734 C309.85757997 120.44585512 313.80566184 124.01957449 317.84594727 127.52636719 C329.85869133 138.05522791 341.62783228 149.04565307 351.6015625 161.5390625 C353.73629042 164.15655574 355.96047391 166.64267171 358.25 169.125 C362.4460621 173.74066831 366.25268682 178.59741904 370.01171875 183.5703125 C372.04480172 186.25796701 374.11559206 188.91219295 376.20703125 191.5546875 C383.02308822 200.17874429 389.52483024 208.87147926 395.45068359 218.13134766 C396.9785586 220.50834646 398.53045908 222.86887476 400.08203125 225.23046875 C408.74775646 238.52016889 416.4876824 252.18091085 423.8125 266.25 C424.36381592 267.3028418 424.36381592 267.3028418 424.92626953 268.37695312 C435.9226164 289.48557332 445.7892047 311.34194873 454.66992188 333.41601562 C455.80275466 336.22582823 456.95547161 339.02691149 458.109375 341.828125 C473.02154859 378.45401089 482.06158774 417.36594642 488.8125 456.25 C489.0285791 457.48911133 489.2446582 458.72822266 489.46728516 460.00488281 C495.618847 496.04010901 499.11223153 532.74513405 500.8125 569.25 C500.86889648 570.40161621 500.92529297 571.55323242 500.98339844 572.73974609 C502.19309365 598.55492818 502.02079959 624.41416761 501.8125 650.25 C501.80313416 651.49873901 501.80313416 651.49873901 501.7935791 652.77270508 C501.48031533 690.99886621 498.37073568 729.43301867 492.8125 767.25 C492.65201172 768.34613617 492.65201172 768.34613617 492.48828125 769.4644165 C481.30236936 845.54589444 462.41335455 919.19111815 432.8125 990.25 C432.51815063 990.95840027 432.22380127 991.66680054 431.92053223 992.39666748 C422.37317419 1015.37278612 412.58467318 1038.24617502 402.640625 1061.05322266 C401.46982883 1063.73862877 400.30285404 1066.42562136 399.140625 1069.11474609 C389.24548678 1091.98194516 377.83205714 1113.72708738 365.46679688 1135.34423828 C363.78177405 1138.30396992 362.11493286 1141.27327197 360.453125 1144.24609375 C354.59934746 1154.70776371 348.59863826 1165.0125689 342.15625 1175.12158203 C340.07350667 1178.42052033 338.03857365 1181.74858738 335.99682617 1185.07299805 C330.59715202 1193.85539312 325.06684151 1202.51657549 319.28955078 1211.05419922 C317.53351957 1213.66473553 315.79569316 1216.28698472 314.05859375 1218.91015625 C306.58383725 1230.18998251 299.02561619 1241.38845332 291.14453125 1252.38867188 C289.87208948 1254.16673201 288.60671436 1255.94957488 287.34375 1257.734375 C276.38995737 1273.19045612 265.05987354 1288.33998994 253.37304688 1303.24853516 C251.97124729 1305.04640014 250.58273891 1306.85305544 249.203125 1308.66796875 C243.35878573 1316.35537579 237.28436299 1323.82409994 231.1171875 1331.25390625 C228.49779951 1334.41032049 225.93147267 1337.60485033 223.375 1340.8125 C218.84001551 1346.38478719 213.90744806 1351.57370934 208.95141602 1356.76977539 C208.33065186 1357.42196045 207.7098877 1358.07414551 207.0703125 1358.74609375 C206.5148877 1359.32544678 205.95946289 1359.9047998 205.38720703 1360.50170898 C203.73606904 1362.26769792 203.73606904 1362.26769792 202.23388672 1364.46899414 C201.7648291 1365.05672607 201.29577148 1365.64445801 200.8125 1366.25 C200.1525 1366.25 199.4925 1366.25 198.8125 1366.25 C198.56193848 1366.82580811 198.31137695 1367.40161621 198.05322266 1367.99487305 C196.64393301 1370.55638593 195.03341237 1372.2718495 192.9609375 1374.33203125 C192.19136719 1375.09966797 191.42179687 1375.86730469 190.62890625 1376.65820312 C189.42041016 1377.84833008 189.42041016 1377.84833008 188.1875 1379.0625 C187.40503906 1379.84431641 186.62257813 1380.62613281 185.81640625 1381.43164062 C181.5983648 1385.61820415 177.29385037 1389.63714995 172.79101562 1393.5144043 C168.48157951 1397.29473269 164.38598985 1401.31500147 160.25585938 1405.2890625 C155.98536427 1409.351719 151.58849391 1413.07538621 146.8996582 1416.64648438 C144.0511266 1418.83494566 141.34692521 1421.15562056 138.625 1423.5 C133.62466874 1427.77388195 128.51820053 1431.87904473 123.32324219 1435.91308594 C118.59438608 1439.59915535 113.98172744 1443.41296737 109.375 1447.25 C102.32292832 1453.10266421 95.07820557 1458.5964298 87.63330078 1463.93652344 C85.82768032 1465.23904932 84.0349992 1466.55744301 82.24609375 1467.8828125 C57.20819906 1486.43166847 31.46883949 1504.1552165 4.45996094 1519.71435547 C1.79659457 1521.25922585 -0.84981109 1522.82968304 -3.4921875 1524.41015625 C-25.0154215 1537.280548 -46.96820094 1549.27796699 -69.28515625 1560.703125 C-73.51823115 1562.87058972 -77.73664792 1565.06027196 -81.93359375 1567.296875 C-107.20858365 1580.7509674 -133.29869315 1592.51653334 -159.63183594 1603.72949219 C-163.0766329 1605.20258993 -166.51213529 1606.69536128 -169.9453125 1608.1953125 C-188.74835619 1616.38377877 -207.79422801 1623.91430103 -226.90161133 1631.35760498 C-229.23863361 1632.26996221 -231.57356344 1633.18752177 -233.90820312 1634.10595703 C-242.36055449 1637.42414702 -250.83098051 1640.59894996 -259.4375 1643.5 C-267.23516482 1646.1613559 -274.99289108 1648.89853702 -282.70947266 1651.78662109 C-299.22019222 1657.95424228 -315.87858419 1663.69596957 -332.5625 1669.375 C-333.53514297 1669.70608261 -333.53514297 1669.70608261 -334.5274353 1670.04385376 C-352.18660297 1676.04854764 -369.87382683 1681.67250777 -387.88671875 1686.51953125 C-414.09075427 1693.59096117 -438.55262203 1704.78367281 -460.38574219 1720.92041016 C-462.23231097 1722.28306782 -464.08765614 1723.6329733 -465.9453125 1724.98046875 C-482.05488021 1734.82212608 -482.05488021 1734.82212608 -493.875 1748 C-494.70317124 1753.96283296 -494.49883221 1758.12277594 -491.1875 1763.25 C-478.13405574 1780.3645158 -452.1531908 1786.20432908 -432.875 1792.8125 C-394.18402899 1806.07764008 -355.95915804 1826.41360966 -336.75 1864.375 C-316.23061954 1906.53448181 -327.99400092 1955.89090734 -342.46488953 1997.98394775 C-346.92717674 2010.75707684 -352.40541872 2023.02476213 -358.1875 2035.25 C-359.18901935 2037.40224266 -360.19032206 2039.55458615 -361.19140625 2041.70703125 C-370.37870275 2061.30010256 -380.81050356 2080.0689241 -391.8125 2098.6875 C-392.39984421 2099.68440353 -392.39984421 2099.68440353 -392.99905396 2100.70144653 C-398.42108663 2109.88657101 -404.13205222 2118.82675122 -410.11224365 2127.65805054 C-411.52205312 2129.74531599 -412.91094398 2131.84604106 -414.296875 2133.94921875 C-423.72889311 2148.21023544 -433.5381273 2162.20377462 -443.50268555 2176.09692383 C-446.22021791 2179.88683072 -448.91157535 2183.69434429 -451.59350586 2187.50952148 C-457.24780324 2195.55064804 -462.99977447 2203.51156922 -468.83740234 2211.42041016 C-471.08365632 2214.46442956 -473.32388919 2217.51285679 -475.5625 2220.5625 C-476.01334961 2221.17657715 -476.46419922 2221.7906543 -476.92871094 2222.42333984 C-480.47738785 2227.26437446 -483.99150952 2232.12979314 -487.5 2237 C-495.82024832 2248.54400212 -504.22488244 2260.02818402 -512.8125 2271.375 C-517.90945911 2278.1489623 -522.76313492 2285.09158224 -527.63037109 2292.03125 C-537.55468606 2306.17238742 -547.5669616 2320.24869782 -557.6875 2334.25 C-559.85480708 2337.24953798 -562.02157075 2340.24946694 -564.1875 2343.25 C-564.61498535 2343.84216309 -565.0424707 2344.43432617 -565.48291016 2345.04443359 C-577.43725408 2361.62784397 -589.04639537 2378.44486478 -600.33325195 2395.48901367 C-604.461815 2401.70833308 -608.68291443 2407.84788614 -613 2413.9375 C-620.97937308 2425.21164185 -628.47119675 2436.8020386 -636.00593567 2448.37521362 C-638.82843314 2452.70786028 -641.68059541 2457.01921205 -644.5625 2461.3125 C-649.96016755 2469.36638509 -655.22344883 2477.5073314 -660.49658203 2485.64306641 C-662.75160583 2489.11969709 -665.01211255 2492.59274771 -667.27246094 2496.06591797 C-675.96585814 2509.42723607 -684.57849702 2522.83480919 -693.078125 2536.3203125 C-695.12526925 2539.56825968 -697.17736615 2542.81297922 -699.234375 2546.0546875 C-705.53239919 2555.98618718 -711.72539808 2565.97526804 -717.83300781 2576.02490234 C-719.18407921 2578.24438049 -720.54030089 2580.46062035 -721.8984375 2582.67578125 C-727.63795801 2592.0386896 -733.31911513 2601.43494656 -738.95703125 2610.859375 C-741.23593404 2614.66766223 -743.52689821 2618.46842097 -745.82421875 2622.265625 C-753.61257483 2635.15624564 -761.18991994 2648.14193329 -768.53417969 2661.29052734 C-770.27147662 2664.40031964 -772.01417319 2667.50704104 -773.7578125 2670.61328125 C-777.24130429 2676.82165651 -780.71552187 2683.03518059 -784.1875 2689.25 C-784.6422168 2690.06275391 -785.09693359 2690.87550781 -785.56542969 2691.71289062 C-797.22392909 2712.55660286 -808.47746797 2733.59697609 -819.41699219 2754.82666016 C-821.17587771 2758.22752789 -822.94882705 2761.6206712 -824.7265625 2765.01171875 C-831.76836489 2778.46427832 -838.53468734 2792.01728352 -845.0546875 2805.73046875 C-847.35271971 2810.55328326 -849.72798342 2815.33161329 -852.1328125 2820.1015625 C-856.00352192 2827.7986922 -859.64040104 2835.5867782 -863.1875 2843.4375 C-863.65805817 2844.47606644 -863.65805817 2844.47606644 -864.13812256 2845.53561401 C-876.80035125 2873.50300461 -888.83831257 2901.72499669 -900.1875 2930.25 C-900.5680957 2931.19584961 -900.94869141 2932.14169922 -901.34082031 2933.11621094 C-919.09218083 2977.31992687 -930.74152508 3024.041759 -942.4437561 3070.12666702 C-943.04941205 3072.51097617 -943.65658279 3074.8948957 -944.26391602 3077.27877808 C-948.607065 3094.34976633 -952.77164056 3111.45467386 -956.63671875 3128.640625 C-956.80451214 3129.37847544 -956.97230553 3130.11632587 -957.14518356 3130.87653542 C-960.17574463 3144.24773355 -962.05851239 3157.57722941 -963.1875 3171.25 C-963.32454346 3172.59989014 -963.32454346 3172.59989014 -963.46435547 3173.97705078 C-966.55054191 3207.02290093 -965.01211698 3241.3136187 -961.1875 3274.25 C-961.08097107 3275.16753052 -960.97444214 3276.08506104 -960.86468506 3277.03039551 C-960.03239359 3284.12948254 -959.15468756 3291.22229585 -958.25 3298.3125 C-958.12888855 3299.26655731 -958.0077771 3300.22061462 -957.88299561 3301.20358276 C-953.32531561 3336.67871647 -944.20894158 3370.74287495 -927.14697266 3402.43554688 C-926.15614027 3404.30930421 -925.22142866 3406.20401379 -924.29296875 3408.109375 C-914.98458332 3426.89683753 -902.70911887 3444.46391017 -888.48144531 3459.84570312 C-886.7584252 3461.71566759 -885.09780728 3463.63684681 -883.4375 3465.5625 C-882.35558394 3466.79291434 -881.27219927 3468.02203856 -880.1875 3469.25 C-879.5171875 3470.013125 -878.846875 3470.77625 -878.15625 3471.5625 C-873.20513718 3477.14121867 -868.03099079 3482.43711034 -862.7265625 3487.67578125 C-860.68445967 3489.74615935 -858.79400866 3491.82992934 -856.9375 3494.0625 C-849.45962806 3502.80474642 -840.48865741 3510.83265005 -831.26953125 3517.69140625 C-828.97128079 3519.41186016 -826.77527713 3521.23360892 -824.5625 3523.0625 C-782.12626598 3556.9462007 -726.98701508 3572.52044855 -675.28500366 3586.08441162 C-673.63042748 3586.51883572 -671.97675202 3586.95670918 -670.3241272 3587.39849854 C-650.24240954 3592.74032609 -630.92298317 3593.62995475 -610.1875 3593.5625 C-608.99641632 3593.56034485 -607.80533264 3593.5581897 -606.57815552 3593.55596924 C-565.51221755 3593.43704812 -524.97416701 3588.64227002 -485.1875 3578.25 C-483.53741943 3577.82146729 -483.53741943 3577.82146729 -481.85400391 3577.38427734 C-456.66602138 3570.74377661 -432.54004209 3561.93411874 -408.875 3551.125 C-408.161091 3550.79951172 -407.44718201 3550.47402344 -406.7116394 3550.13867188 C-374.76910287 3535.50490581 -344.60606564 3517.25856541 -317.1875 3495.25 C-316.46981445 3494.67507812 -315.75212891 3494.10015625 -315.01269531 3493.5078125 C-305.76135991 3486.06448951 -296.85946851 3478.35793804 -288.1875 3470.25 C-287.14510187 3469.30781978 -286.10078056 3468.36776358 -285.0546875 3467.4296875 C-277.20405494 3460.35865152 -269.95419336 3452.85088318 -262.83349609 3445.04882812 C-261.29017249 3443.36220571 -259.7357176 3441.68687443 -258.17578125 3440.015625 C-248.68880225 3429.82469977 -240.09288037 3418.95817994 -231.54296875 3407.98339844 C-230.26555197 3406.3498143 -228.97794543 3404.72486092 -227.6875 3403.1015625 C-221.20238214 3394.84966574 -215.3891672 3386.22711021 -209.63818359 3377.45166016 C-208.27911282 3375.3890381 -206.9041024 3373.33853427 -205.51953125 3371.29296875 C-199.76367338 3362.78507754 -194.3296847 3354.14237064 -189.1875 3345.25 C-188.6929834 3344.39776855 -188.1984668 3343.54553711 -187.68896484 3342.66748047 C-167.33561612 3307.41993643 -150.8900619 3270.77246335 -136.50683594 3232.72509766 C-135.35790433 3229.69884073 -134.1874242 3226.68234739 -133.0078125 3223.66796875 C-115.34069198 3177.8013222 -107.22422949 3128.26636197 -101.875 3079.625 C-101.79359772 3078.89583374 -101.71219543 3078.16666748 -101.62832642 3077.41540527 C-99.50679277 3058.15541704 -98.97739091 3038.86531295 -99 3019.5 C-99.00060425 3018.52755341 -99.0012085 3017.55510681 -99.00183105 3016.55319214 C-99.03162262 2998.71476293 -99.65636754 2981.02719917 -101.1875 2963.25 C-101.27871124 2962.16703644 -101.27871124 2962.16703644 -101.37176514 2961.06219482 C-104.33299536 2926.09839761 -109.7470462 2891.32518567 -118.1875 2857.25 C-118.4664209 2856.12319824 -118.7453418 2854.99639648 -119.03271484 2853.83544922 C-124.85745416 2830.62966206 -131.64695313 2807.54307529 -139.32958984 2784.88110352 C-141.08664734 2779.49242718 -140.74682072 2774.36864143 -138.1875 2769.25 C-135.1875 2770.25 -135.1875 2770.25 -133.81225586 2772.42944336 C-133.34698486 2773.38987549 -132.88171387 2774.35030762 -132.40234375 2775.33984375 C-131.87680908 2776.42064209 -131.35127441 2777.50144043 -130.80981445 2778.61499023 C-130.25382568 2779.79391846 -129.69783691 2780.97284668 -129.125 2782.1875 C-128.83748871 2782.79167755 -128.54997742 2783.3958551 -128.25375366 2784.01834106 C-122.66077755 2795.79438237 -117.82187414 2807.7988646 -113.35839844 2820.04882812 C-112.242843 2823.09869528 -111.09724651 2826.13559827 -109.9453125 2829.171875 C-96.44148645 2865.30030475 -86.16347189 2902.69705448 -75.27150726 2939.67987061 C-74.84508773 2941.1277214 -74.41848156 2942.57551725 -73.99167633 2944.02325439 C-57.41960961 3000.23941236 -57.41960961 3000.23941236 -52.375 3025.0625 C-52.17062317 3026.05731384 -51.96624634 3027.05212769 -51.75567627 3028.0770874 C-42.15042759 3074.99611854 -34.98689489 3122.38676116 -27.5625 3169.6875 C-27.29168736 3171.41220898 -27.29168736 3171.41220898 -27.01540375 3173.17176056 C-25.96797404 3179.84543119 -24.9237026 3186.51958476 -23.88380432 3193.19443321 C-23.56364076 3195.24863362 -23.24290346 3197.30274471 -22.92155457 3199.35676003 C-22.47743645 3202.19773739 -22.03594002 3205.03910979 -21.59521484 3207.88061523 C-21.40207356 3209.1121379 -21.40207356 3209.1121379 -21.20503044 3210.36853981 C-17.89368071 3231.82256251 -17.99909834 3253.45238489 -18.00219727 3275.10864258 C-18.002278 3278.05824994 -17.99540306 3281.00770022 -17.98168945 3283.95727539 C-17.65879711 3354.62729959 -32.23422771 3418.78404613 -55.1875 3485.25 C-55.6279646 3486.53074971 -56.06839529 3487.81151109 -56.50878906 3489.09228516 C-64.23263049 3511.46550241 -72.63221824 3533.58764785 -81.07275391 3555.69824219 C-82.77152297 3560.15105127 -84.45478677 3564.60950086 -86.13212585 3569.07041931 C-87.35417349 3572.31318718 -88.58714804 3575.55172047 -89.8230896 3578.78921509 C-90.38552891 3580.26835601 -90.94387734 3581.74906114 -91.49746704 3583.23153687 C-97.53901383 3599.38797127 -106.14895344 3613.66588305 -115.75 3627.9375 C-116.17892548 3628.57864746 -116.60785095 3629.21979492 -117.04977417 3629.88037109 C-124.44684189 3640.92316451 -132.22693152 3651.61354029 -140.45800781 3662.05322266 C-142.08740184 3664.12285669 -143.69908289 3666.20485352 -145.3046875 3668.29296875 C-150.64884425 3675.21766416 -156.26380849 3681.81120488 -162.1875 3688.25 C-165.39147764 3691.84733727 -168.55831441 3695.43375924 -171.5 3699.25 C-172.056875 3699.91 -172.61375 3700.57 -173.1875 3701.25 C-173.8475 3701.25 -174.5075 3701.25 -175.1875 3701.25 C-175.414375 3701.80558594 -175.64125 3702.36117187 -175.875 3702.93359375 C-177.56447184 3705.91531043 -179.72252125 3707.9370917 -182.1875 3710.3125 C-184.86960288 3712.90493955 -187.11539175 3715.14183762 -189.1875 3718.25 C-189.8475 3718.25 -190.5075 3718.25 -191.1875 3718.25 C-191.1875 3718.91 -191.1875 3719.57 -191.1875 3720.25 C-192.64306641 3721.69750977 -192.64306641 3721.69750977 -194.6640625 3723.37890625 C-199.11695006 3727.16474224 -203.33693051 3731.15176234 -207.5625 3735.1875 C-212.78851305 3740.14205384 -218.0248979 3744.93786714 -223.73828125 3749.33203125 C-226.78086708 3751.71466226 -229.69462292 3754.23174046 -232.625 3756.75 C-237.41633588 3760.84278859 -242.33048556 3764.65422464 -247.46875 3768.30859375 C-250.26596844 3770.30603278 -253.00936892 3772.36320367 -255.75 3774.4375 C-277.67649903 3790.9109244 -277.67649903 3790.9109244 -288.203125 3797.40234375 C-290.5684932 3798.86676673 -292.90409324 3800.36015742 -295.234375 3801.87890625 C-306.97527905 3809.4867589 -319.07115963 3816.24831121 -331.43408203 3822.78955078 C-333.85766556 3824.07505146 -336.27261949 3825.37465371 -338.68359375 3826.68359375 C-359.70644136 3838.05444214 -381.58409549 3847.67339439 -403.4526825 3857.27792358 C-407.67956842 3859.13647395 -411.89549152 3861.01631939 -416.09922791 3862.92663574 C-435.05518196 3871.53437457 -454.22512415 3878.39236321 -474.1875 3884.25 C-474.86945435 3884.4502478 -475.55140869 3884.65049561 -476.25402832 3884.85681152 C-522.97456558 3898.49190579 -571.05816275 3905.9295652 -619.3125 3911.625 C-620.6126001 3911.78073486 -621.9127002 3911.93646973 -623.25219727 3912.09692383 C-645.70546206 3914.6051311 -668.28078885 3914.43797698 -690.84179688 3914.43530273 C-694.30441553 3914.43522184 -697.76690084 3914.44212182 -701.22949219 3914.45581055 C-729.31108291 3914.56487966 -757.48650897 3914.36800826 -785.3125 3910.125 C-786.01630798 3910.02018311 -786.72011597 3909.91536621 -787.44525146 3909.80737305 C-848.02360443 3900.7361769 -911.50660845 3885.00291706 -967.1875 3859.25 C-968.27144043 3858.75290527 -969.35538086 3858.25581055 -970.47216797 3857.74365234 C-977.77568342 3854.373397 -984.99694013 3850.85424851 -992.1875 3847.25 C-993.28545898 3846.70230957 -994.38341797 3846.15461914 -995.51464844 3845.59033203 C-1018.49426122 3834.07424069 -1040.18357055 3821.05188565 -1061.1875 3806.25 C-1062.15937256 3805.5696167 -1062.15937256 3805.5696167 -1063.15087891 3804.87548828 C-1075.2398698 3796.40656103 -1086.87320578 3787.49115033 -1098.08203125 3777.88671875 C-1100.84002903 3775.52889771 -1103.66196369 3773.26109619 -1106.5 3771 C-1116.95561894 3762.48570212 -1126.58257619 3752.94902876 -1136.046875 3743.359375 C-1137.95229665 3741.48176972 -1139.89907276 3739.73009371 -1141.9375 3738 C-1151.03159771 3730.20241316 -1159.49639407 3721.42414429 -1167.1875 3712.25 C-1167.96867187 3711.35796875 -1168.74984375 3710.4659375 -1169.5546875 3709.546875 C-1177.04994948 3700.94176974 -1183.8166538 3691.85323482 -1190.48828125 3682.60058594 C-1192.05328112 3680.43566945 -1193.63391007 3678.28321865 -1195.21875 3676.1328125 C-1204.05285664 3664.02358639 -1211.64283058 3651.18980289 -1219.1875 3638.25 C-1219.8386377 3637.13890869 -1219.8386377 3637.13890869 -1220.50292969 3636.00537109 C-1231.40591574 3617.32715245 -1241.44938005 3597.96271492 -1249.97119141 3578.08349609 C-1250.84654419 3576.04428605 -1251.73001885 3574.00855546 -1252.61865234 3571.97509766 C-1266.19493009 3540.87331292 -1277.3321225 3509.00957289 -1286.1875 3476.25 C-1286.65446289 3474.54650391 -1286.65446289 3474.54650391 -1287.13085938 3472.80859375 C-1295.34546776 3442.57743367 -1300.86869049 3411.39072768 -1304.1875 3380.25 C-1304.26162109 3379.56681702 -1304.33574219 3378.88363403 -1304.41210938 3378.17974854 C-1306.81738899 3355.79664302 -1307.49505311 3333.43019254 -1307.55586243 3310.92891312 C-1307.56236944 3308.97667159 -1307.57428126 3307.02445046 -1307.58630371 3305.07223511 C-1307.6987008 3281.65611178 -1305.6417473 3258.74002421 -1301.5625 3235.6875 C-1301.43711853 3234.97266449 -1301.31173706 3234.25782898 -1301.18255615 3233.52133179 C-1290.18485713 3171.08547632 -1273.15377147 3109.69204479 -1256.38128662 3048.60125732 C-1255.57045036 3045.64756597 -1254.76170248 3042.69331411 -1253.95465088 3039.73858643 C-1251.46067654 3030.60929217 -1248.945936 3021.48611559 -1246.40322876 3012.37026978 C-1245.60586517 3009.50998029 -1244.81560379 3006.64789195 -1244.03207397 3003.78378296 C-1239.33310577 2986.63359537 -1233.76233825 2970.36363863 -1226.1875 2954.25 C-1225.61048447 2952.98058128 -1225.03623294 2951.7098994 -1224.46582031 2950.4375 C-1223.10266706 2947.40624161 -1221.71438069 2944.38850763 -1220.3125 2941.375 C-1219.56154053 2939.75634033 -1219.56154053 2939.75634033 -1218.79541016 2938.10498047 C-1204.63105661 2907.66291816 -1190.11171781 2877.22313764 -1173.68554688 2847.92529297 C-1172.03519667 2844.9780085 -1170.40015142 2842.02249375 -1168.765625 2839.06640625 C-1157.50570575 2818.75808941 -1145.4745507 2799.00046083 -1133.12402344 2779.34082031 C-1131.18126343 2776.24004601 -1129.24919071 2773.13286333 -1127.3203125 2770.0234375 C-1120.27918986 2758.68269376 -1113.10801631 2747.45964017 -1105.63476562 2736.39892578 C-1103.65752111 2733.4630779 -1101.70183214 2730.51311242 -1099.74487305 2727.5637207 C-1089.62386538 2712.32187655 -1079.25591775 2697.2585031 -1068.66699219 2682.33837891 C-1067.18249848 2680.2429401 -1065.7036166 2678.14365709 -1064.2265625 2676.04296875 C-1061.22303659 2671.77189074 -1058.20940426 2667.50809423 -1055.1875 2663.25 C-1054.67074707 2662.52167969 -1054.15399414 2661.79335937 -1053.62158203 2661.04296875 C-1046.97896874 2651.70364664 -1040.15628443 2642.54125289 -1033.08007812 2633.52563477 C-1029.25757049 2628.65107563 -1025.57696805 2623.70831806 -1021.96484375 2618.67578125 C-1019.53387489 2615.35790947 -1016.96375613 2612.16424584 -1014.375 2608.96875 C-1012.77481258 2606.97994564 -1011.19260001 2604.98290669 -1009.625 2602.96875 C-1005.10995673 2597.16868094 -1000.54648832 2591.44544946 -995.75 2585.875 C-991.18783776 2580.56452941 -986.97922216 2575.0436505 -982.81762695 2569.41601562 C-977.62664139 2562.42657177 -972.12576794 2555.70508509 -966.60058594 2548.97900391 C-964.73129799 2546.69180673 -962.89587399 2544.37853775 -961.0625 2542.0625 C-957.57057167 2537.68104888 -953.95992657 2533.40794948 -950.328125 2529.14257812 C-947.35977683 2525.65209669 -944.44525569 2522.12443897 -941.5625 2518.5625 C-937.98527821 2514.16417214 -934.24152459 2509.95701146 -930.42578125 2505.765625 C-927.39148354 2502.35534974 -924.53368165 2498.81462395 -921.6640625 2495.265625 C-918.23765113 2491.09340169 -914.71133946 2487.00974477 -911.17260742 2482.93261719 C-909.01747878 2480.43896248 -907.01839809 2477.99634714 -905.1875 2475.25 C-904.5275 2475.25 -903.8675 2475.25 -903.1875 2475.25 C-902.960625 2474.70472656 -902.73375 2474.15945312 -902.5 2473.59765625 C-900.80388997 2470.56384039 -898.55853261 2468.1957772 -896.1875 2465.6875 C-895.18993984 2464.61473612 -894.19254754 2463.54181612 -893.1953125 2462.46875 C-892.69161133 2461.92992188 -892.18791016 2461.39109375 -891.66894531 2460.8359375 C-883.95066111 2452.57325223 -876.60362386 2444.09281014 -869.5859375 2435.2265625 C-868.49436235 2433.86688117 -867.34809061 2432.55126826 -866.1875 2431.25 C-865.5275 2431.25 -864.8675 2431.25 -864.1875 2431.25 C-863.97480469 2430.71890625 -863.76210937 2430.1878125 -863.54296875 2429.640625 C-861.66502598 2426.32851845 -859.10709964 2423.74065437 -856.5 2421 C-855.40287208 2419.83015226 -854.30651323 2418.65958276 -853.2109375 2417.48828125 C-852.68467773 2416.92705566 -852.15841797 2416.36583008 -851.61621094 2415.78759766 C-849.36578069 2413.36565478 -847.21038658 2410.8658512 -845.05078125 2408.36328125 C-842.0391373 2404.94755929 -838.93530657 2401.61538189 -835.82983398 2398.28491211 C-833.20522379 2395.48695655 -833.20522379 2395.48695655 -831.1875 2392.25 C-830.5275 2392.25 -829.8675 2392.25 -829.1875 2392.25 C-828.92864014 2391.66895508 -828.66978027 2391.08791016 -828.40307617 2390.48925781 C-827.09265824 2388.07528848 -825.63903118 2386.40002879 -823.73828125 2384.421875 C-823.05443359 2383.70386719 -822.37058594 2382.98585938 -821.66601562 2382.24609375 C-820.59383789 2381.13427734 -820.59383789 2381.13427734 -819.5 2380 C-814.87059572 2375.16894419 -810.32553099 2370.30435893 -805.94506836 2365.24609375 C-802.82582101 2361.70352307 -799.56272925 2358.29699411 -796.3125 2354.875 C-791.94212469 2350.25730152 -787.59235943 2345.63382872 -783.375 2340.875 C-779.41659927 2336.42463742 -775.22117946 2332.24383131 -770.9609375 2328.0859375 C-768.87289745 2325.95084303 -766.92708031 2323.81168382 -764.98828125 2321.54858398 C-761.36458321 2317.39172309 -757.5334969 2313.50026513 -753.6015625 2309.63671875 C-752.16131954 2308.20912438 -750.72121985 2306.78138547 -749.28125 2305.35351562 C-747.04983794 2303.14681547 -744.81683823 2300.9417732 -742.58105469 2298.73950195 C-731.25512382 2287.58429524 -731.25512382 2287.58429524 -720.97460938 2275.47851562 C-718.62846366 2272.55288474 -716.02163984 2269.97261714 -713.3046875 2267.39453125 C-711.51910859 2265.58589136 -709.89197839 2263.74586886 -708.24621582 2261.81311035 C-703.45825792 2256.32775578 -698.28942439 2251.22773405 -693.13085938 2246.09570312 C-692.02767437 2244.99444105 -690.92471959 2243.8929483 -689.82197571 2242.79124451 C-687.46082153 2240.43323338 -685.09812737 2238.07678047 -682.73420715 2235.72154236 C-678.99039407 2231.9913375 -675.25047489 2228.25724463 -671.5111084 2224.52258301 C-662.89887525 2215.92235417 -654.28162099 2207.32716217 -645.66431427 2198.73201752 C-637.76151966 2190.84944327 -629.85980902 2182.96579035 -621.96215105 2175.07806921 C-618.25071416 2171.37159115 -614.53685855 2167.66755956 -610.82108307 2163.96543121 C-608.50398783 2161.65583579 -606.18900266 2159.34413401 -603.87456322 2157.03187752 C-602.80765066 2155.96682467 -601.73988028 2154.90263029 -600.67115211 2153.83939934 C-592.22432032 2145.43462287 -584.4842789 2136.72233954 -577.10546875 2127.375 C-576.47253906 2126.67375 -575.83960937 2125.9725 -575.1875 2125.25 C-574.5275 2125.25 -573.8675 2125.25 -573.1875 2125.25 C-573.1875 2124.59 -573.1875 2123.93 -573.1875 2123.25 C-571.8125 2121.625 -571.8125 2121.625 -570.1875 2120.25 C-569.5275 2120.25 -568.8675 2120.25 -568.1875 2120.25 C-567.919375 2119.651875 -567.65125 2119.05375 -567.375 2118.4375 C-566.18832594 2116.25152146 -565.09150887 2114.83667406 -563.1875 2113.25 C-562.5275 2113.25 -561.8675 2113.25 -561.1875 2113.25 C-561.1875 2112.59 -561.1875 2111.93 -561.1875 2111.25 C-560.5275 2111.25 -559.8675 2111.25 -559.1875 2111.25 C-558.8575 2110.26 -558.5275 2109.27 -558.1875 2108.25 C-556.62013245 2106.70140076 -556.62013245 2106.70140076 -554.62329102 2105.05249023 C-550.27796175 2101.3631486 -546.23798762 2097.44526819 -542.21484375 2093.41015625 C-541.48809952 2092.68436874 -540.76135529 2091.95858124 -540.0125885 2091.21080017 C-538.48787704 2089.68676444 -536.9644085 2088.16148431 -535.44213867 2086.63500977 C-533.13116109 2084.31867537 -530.81489229 2082.00772922 -528.49804688 2079.69726562 C-527.0074918 2078.20604966 -525.517247 2076.71452347 -524.02734375 2075.22265625 C-523.34486069 2074.54219742 -522.66237762 2073.86173859 -521.95921326 2073.16065979 C-518.05017635 2069.23279227 -514.31605351 2065.20265939 -510.69947815 2061.00352478 C-508.57670467 2058.54162683 -506.38265795 2056.14734355 -504.1875 2053.75 C-501.30878022 2050.59814867 -498.464303 2047.42928652 -495.6875 2044.1875 C-492.98263631 2041.06797561 -490.12240509 2038.15396483 -487.1875 2035.25 C-480.75680859 2028.87768098 -475.04388188 2022.22020154 -469.66796875 2014.9375 C-468.93513672 2014.1021875 -468.93513672 2014.1021875 -468.1875 2013.25 C-467.5275 2013.25 -466.8675 2013.25 -466.1875 2013.25 C-465.960625 2012.71246094 -465.73375 2012.17492188 -465.5 2011.62109375 C-463.77853243 2008.51118061 -461.5155273 2005.97384486 -459.1875 2003.3125 C-454.07740234 1997.36820344 -449.2355005 1991.26752654 -444.51611328 1985.00830078 C-443.09993113 1983.13411044 -441.67324627 1981.26819115 -440.24609375 1979.40234375 C-433.52981136 1970.58405988 -427.10539786 1961.62591608 -421.1875 1952.25 C-420.82140625 1951.67040527 -420.4553125 1951.09081055 -420.078125 1950.49365234 C-412.26287892 1937.93899753 -404.3102768 1922.24490297 -405.25 1907.0625 C-407.70877846 1897.06346758 -414.33738119 1891.81131321 -422.86328125 1886.62109375 C-433.79386627 1880.45234775 -445.34089524 1876.83145169 -457.375 1873.5 C-458.15349304 1873.28412231 -458.93198608 1873.06824463 -459.73406982 1872.8458252 C-524.70220623 1854.95788021 -592.49694699 1849.89100288 -659.43555069 1844.53526688 C-661.39748177 1844.37820368 -663.35931034 1844.2198616 -665.32113647 1844.06149292 C-669.01048961 1843.76624322 -672.700374 1843.47910012 -676.390625 1843.1953125 C-677.42051041 1843.11335129 -678.45039581 1843.03139008 -679.51148987 1842.94694519 C-700.72133882 1841.36094602 -721.95128196 1841.09737607 -743.2109375 1841.1171875 C-745.82011931 1841.11651118 -748.42930106 1841.11553845 -751.03848267 1841.11428833 C-756.45876589 1841.1124901 -761.8790353 1841.11481184 -767.29931641 1841.11962891 C-773.50755011 1841.12508357 -779.715751 1841.12329057 -785.92398393 1841.1178025 C-791.98147847 1841.11266854 -798.0389588 1841.11327359 -804.09645462 1841.11618423 C-806.63738637 1841.11684389 -809.17831898 1841.11605936 -811.71924973 1841.11370468 C-825.21167169 1841.10393369 -838.63079012 1841.27880786 -852.09733963 1842.1330452 C-855.87485768 1842.344416 -859.65586857 1842.45294491 -863.4375 1842.5625 C-864.11282587 1842.59268282 -864.78815174 1842.62286564 -865.48394203 1842.65396309 C-870.86436815 1842.71357715 -873.8187807 1841.11909415 -878.1875 1838.25 C-878.72410764 1830.39535362 -877.53835052 1825.33433163 -872.4921875 1819.18359375 C-867.66231633 1814.03107937 -862.3534919 1810.60552598 -856.1875 1807.25 C-854.72570313 1806.39535156 -854.72570313 1806.39535156 -853.234375 1805.5234375 C-843.61630175 1800.08810773 -833.50429356 1795.96583112 -823.28369141 1791.81396484 C-815.85656278 1788.79313482 -808.5179673 1785.639204 -801.25 1782.25 C-787.79405197 1776.01997634 -774.0015402 1770.62402599 -760.1875 1765.25 C-759.01864258 1764.79512207 -757.84978516 1764.34024414 -756.64550781 1763.87158203 C-738.04848972 1756.66806682 -719.2922816 1749.92210046 -700.50935364 1743.22277832 C-693.64016359 1740.77182667 -686.77638731 1738.30603823 -679.9140625 1735.8359375 C-655.48536424 1727.04746457 -631.02169604 1718.36809459 -606.51470947 1709.80032349 C-586.22582811 1702.70371843 -566.00614587 1695.43173657 -545.82424927 1688.03697205 C-539.2127149 1685.61744558 -532.59009602 1683.2293325 -525.96484375 1680.84765625 C-473.34249775 1661.9277905 -420.85741185 1642.65683072 -369.1875 1621.25 C-368.19698639 1620.84031982 -368.19698639 1620.84031982 -367.1864624 1620.42236328 C-341.79652841 1609.91018373 -316.91930192 1598.2140271 -292.0703125 1586.4921875 C-291.31318466 1586.13627029 -290.55605682 1585.78035309 -289.77598572 1585.41365051 C-282.88038072 1582.15139523 -276.11395307 1578.65327757 -269.39453125 1575.04296875 C-265.58258737 1572.99791538 -261.76701707 1570.95988746 -257.94921875 1568.92578125 C-245.21426511 1562.1229012 -232.60019509 1555.14660324 -220.09863281 1547.92480469 C-216.77777296 1546.01427981 -213.44817271 1544.1193493 -210.1171875 1542.2265625 C-208.25194819 1541.16546014 -206.38680197 1540.10419431 -204.52166748 1539.04290771 C-202.75424179 1538.03794939 -200.98578338 1537.03480798 -199.21728516 1536.03173828 C-191.43469502 1531.59693478 -183.79444261 1526.97870884 -176.1875 1522.25 C-174.78087716 1521.38520548 -173.37346165 1520.52169732 -171.96484375 1519.66015625 C-171.02644653 1519.08612061 -171.02644653 1519.08612061 -170.0690918 1518.50048828 C-169.4275415 1518.10845215 -168.78599121 1517.71641602 -168.125 1517.3125 C-167.39514893 1516.86632324 -166.66529785 1516.42014648 -165.91333008 1515.96044922 C-161.12985216 1513.03902568 -156.34021565 1510.12786412 -151.546875 1507.22265625 C-133.46139235 1496.26058039 -115.42707548 1485.22524926 -97.56030273 1473.90893555 C-91.11854316 1469.83046446 -84.65539228 1465.78687629 -78.1875 1461.75 C-63.20812681 1452.39720434 -48.2869954 1442.95534579 -33.39160156 1433.46948242 C-27.37133948 1429.63662461 -21.34556887 1425.8126673 -15.3125 1422 C-14.53841797 1421.50975342 -13.76433594 1421.01950684 -12.96679688 1420.5144043 C-9.2736679 1418.17957307 -5.57038193 1415.86590399 -1.8359375 1413.59765625 C6.25018994 1408.67006958 13.61595906 1403.44186451 20.8125 1397.25 C22.64186239 1395.74515969 24.47524747 1394.24519706 26.3125 1392.75 C27.22386719 1392.00363281 28.13523437 1391.25726562 29.07421875 1390.48828125 C30.86569681 1389.02392044 32.65986638 1387.56284469 34.45703125 1386.10546875 C42.02631026 1379.9547369 49.43325595 1373.62610218 56.8125 1367.25 C57.55371094 1366.61191406 58.29492188 1365.97382813 59.05859375 1365.31640625 C66.96333772 1358.46343694 74.7493872 1351.43841977 82.06884766 1343.96118164 C83.79333861 1342.26880456 85.57888897 1340.70318256 87.41796875 1339.13671875 C92.28203761 1334.90394156 96.82816963 1330.3811029 101.375 1325.8125 C102.18646484 1325.00490234 102.99792969 1324.19730469 103.83398438 1323.36523438 C108.17379598 1319.01841743 112.33986065 1314.58894818 116.34448242 1309.93188477 C118.03406509 1307.99615634 119.82411266 1306.20564754 121.6875 1304.4375 C125.57168137 1300.60550533 128.97901013 1296.48857689 132.39453125 1292.23828125 C134.98732342 1289.03394197 137.64069104 1285.88834471 140.3125 1282.75 C145.21759501 1276.97403312 150.03424433 1271.13151534 154.8125 1265.25 C155.88004668 1263.94127437 156.94776676 1262.63269017 158.015625 1261.32421875 C186.10441901 1226.87874189 210.93864083 1190.17711687 233.32373047 1151.78955078 C234.72364465 1149.40156992 236.14058432 1147.02492385 237.56640625 1144.65234375 C242.7491314 1136.00733244 247.46926579 1127.24327592 251.87109375 1118.17675781 C253.05886554 1115.74576846 254.27953074 1113.33168534 255.50146484 1110.91772461 C256.86863047 1108.20799806 258.21674378 1105.48897271 259.56347656 1102.76904297 C260.46341117 1100.95404585 261.3668336 1099.14077662 262.27246094 1097.32861328 C298.79557679 1024.04754219 337.63213839 931.63170359 339.05078125 846.15234375 C339.0605751 845.29773056 339.07036896 844.44311737 339.08045959 843.56260681 C339.30064841 819.19646019 337.90682533 795.41009108 334.8125 771.25 C334.71066406 770.44248291 334.60882812 769.63496582 334.50390625 768.80297852 C328.13309583 718.39595714 318.53697111 668.41966655 308.49420166 618.63641357 C307.82520995 615.31313779 307.16054501 611.98902939 306.49755859 608.66455078 C301.00103468 581.11088831 295.24075532 553.61579792 289.31611633 526.15136337 C288.81559283 523.82686353 288.31755456 521.50184396 287.82019043 519.17666626 C287.03571324 515.51149122 286.24382588 511.84799251 285.44625092 508.18564606 C285.152706 506.8327177 284.86150653 505.47927795 284.57285309 504.12529755 C283.16563217 497.53388399 281.81601345 491.30563748 278.8125 485.25 C278.48507812 484.58685791 278.15765625 483.92371582 277.8203125 483.24047852 C272.09128169 472.78214545 265.73908261 462.95081856 258.8125 453.25 C258.03036133 452.14688477 258.03036133 452.14688477 257.23242188 451.02148438 C246.39599675 435.7513835 235.21693073 421.41939068 222.31005859 407.84472656 C220.44458176 405.85820967 218.6506627 403.81695119 216.875 401.75 C211.3550194 395.36062245 205.25244003 389.69830324 198.8125 384.25 C197.61173828 383.23292969 197.61173828 383.23292969 196.38671875 382.1953125 C184.1570364 372.01296957 171.23428271 362.98197284 157.78466797 354.49609375 C155.98727901 353.36043229 154.19804358 352.21303124 152.41015625 351.0625 C144.82618742 346.26275706 137.0222798 342.17085736 128.94580078 338.28417969 C126.81736988 337.25236082 124.70341004 336.19469619 122.58984375 335.1328125 C96.22205638 322.05596188 68.46203985 313.1854439 39.625 307.5 C38.67794189 307.31324707 37.73088379 307.12649414 36.75512695 306.93408203 C33.44818662 306.31926125 30.13403375 305.78060194 26.8125 305.25 C26.08751312 305.12365173 25.36252625 304.99730347 24.61557007 304.86712646 C6.79832061 301.81154688 -10.93648334 301.78513779 -28.95288086 301.85888672 C-33.12606294 301.87582464 -37.29866423 301.86590901 -41.4718256 301.84856224 C-58.28692647 301.78943282 -74.98064944 302.12484941 -91.734375 303.640625 C-92.41991266 303.702607 -93.10545033 303.764589 -93.81176186 303.82844925 C-148.16859863 308.87008357 -200.29886742 327.42414748 -251.1875 346.25 C-252.22535645 346.63285156 -252.22535645 346.63285156 -253.28417969 347.0234375 C-293.10807608 361.87656177 -331.77305954 383.19031967 -366.890625 407.03125 C-369.72706899 408.94013648 -372.5924828 410.76512573 -375.5 412.5625 C-383.66869284 417.72675485 -391.3943572 423.54307463 -399.1875 429.25 C-399.99380859 429.83797363 -400.80011719 430.42594727 -401.63085938 431.03173828 C-416.01324051 441.52008685 -430.04438463 452.28732451 -443.56542969 463.86621094 C-445.21702812 465.27519045 -446.87661017 466.6741613 -448.5390625 468.0703125 C-456.15700321 474.47080453 -463.6087207 481.02444081 -470.921875 487.7734375 C-471.81390625 488.59070312 -472.7059375 489.40796875 -473.625 490.25 C-474.42808594 490.9925 -475.23117187 491.735 -476.05859375 492.5 C-478.1875 494.25 -478.1875 494.25 -481.1875 495.25 C-481.1875 495.91 -481.1875 496.57 -481.1875 497.25 C-482.83203125 498.87109375 -482.83203125 498.87109375 -485 500.6875 C-488.01213265 503.22339332 -488.01213265 503.22339332 -490.82421875 505.97265625 C-492.1875 507.25 -492.1875 507.25 -494.1875 507.25 C-494.5175 508.24 -494.8475 509.23 -495.1875 510.25 C-496.75170898 511.77758789 -496.75170898 511.77758789 -498.74609375 513.41015625 C-503.23977616 517.22482893 -507.24386843 521.37051438 -511.25 525.6875 C-512.25256836 526.75581055 -512.25256836 526.75581055 -513.27539062 527.84570312 C-517.14466659 531.98571561 -520.92312302 536.19320331 -524.63989258 540.47045898 C-526.56962216 542.68938924 -528.5304985 544.87883911 -530.5 547.0625 C-531.63501953 548.32126953 -531.63501953 548.32126953 -532.79296875 549.60546875 C-535.29369704 552.36728449 -537.80268573 555.12144049 -540.3125 557.875 C-541.93845583 559.66579928 -543.56354154 561.45738923 -545.1875 563.25 C-546.07888672 564.23033203 -546.07888672 564.23033203 -546.98828125 565.23046875 C-552.19519178 571.05872898 -556.95408756 577.24393639 -561.75244141 583.40771484 C-564.03636689 586.33974984 -566.32988183 589.26422247 -568.625 592.1875 C-569.30344971 593.05242065 -569.30344971 593.05242065 -569.99560547 593.93481445 C-572.83105521 597.54343218 -575.69228594 601.13010087 -578.5690918 604.70581055 C-584.52886013 612.11533125 -590.34347493 619.62520235 -596.09765625 627.1953125 C-597.98702841 629.68074697 -599.88679099 632.15674798 -601.80859375 634.6171875 C-607.99874656 642.56039159 -613.83040599 650.71360087 -619.59130859 658.97119141 C-621.18204427 661.24221111 -622.78642262 663.5029753 -624.39453125 665.76171875 C-633.9216132 679.18694518 -642.92886103 692.93378073 -651.89941406 706.73339844 C-654.00716029 709.97497898 -656.12340192 713.21093432 -658.2421875 716.4453125 C-669.04536158 732.94478111 -679.78221484 749.49761749 -690.03076172 766.34912109 C-691.4355914 768.65769094 -692.84492184 770.96349485 -694.25390625 773.26953125 C-697.90898166 779.2566345 -701.55028477 785.25203332 -705.1875 791.25 C-705.7954541 792.25144043 -706.4034082 793.25288086 -707.02978516 794.28466797 C-727.89427179 828.69579066 -747.33115212 863.92195806 -766.46875 899.31640625 C-767.29669067 900.84744995 -767.29669067 900.84744995 -768.14135742 902.40942383 C-769.2486569 904.45724035 -770.35559505 906.5052523 -771.4621582 908.5534668 C-774.75963732 914.64696965 -778.10947736 920.70788941 -781.5 926.75 C-784.87631385 932.77535994 -788.04010341 938.87093625 -791.0793457 945.07226562 C-794.17686476 951.34298482 -797.54969439 957.45241746 -800.98022461 963.54638672 C-804.38290454 969.63660274 -807.52046011 975.84493635 -810.62158203 982.09179688 C-813.23710077 987.35934422 -815.87926102 992.61341885 -818.52108765 997.86779785 C-820.91303699 1002.6253485 -823.30022037 1007.38528679 -825.68701744 1012.14542389 C-827.44731479 1015.6556529 -829.20908211 1019.16512689 -830.97436523 1022.67285156 C-839.91655405 1040.44487002 -848.60327348 1058.29561201 -856.8789978 1076.38928223 C-858.58233318 1080.11320551 -860.3001832 1083.8303268 -862.01953125 1087.546875 C-862.52282959 1088.63726074 -863.02612793 1089.72764648 -863.54467773 1090.85107422 C-871.23597684 1107.49297588 -871.23597684 1107.49297588 -875.125 1115.125 C-881.50250245 1127.65721747 -887.28858412 1140.48748919 -893.1875 1153.25 C-893.52881958 1153.98827026 -893.87013916 1154.72654053 -894.22180176 1155.48718262 C-904.81425786 1178.40536116 -915.34212267 1201.35474923 -925.484375 1224.4765625 C-929.46457827 1233.54211159 -933.68069862 1242.4357101 -938.17871094 1251.25585938 C-939.22011718 1253.31447656 -940.24140373 1255.38206065 -941.2578125 1257.453125 C-943.19807024 1261.40437904 -945.18179893 1265.33163469 -947.1875 1269.25 C-947.70054687 1270.26835937 -948.21359375 1271.28671875 -948.7421875 1272.3359375 C-952.00446345 1278.34910561 -954.72192274 1280.87928834 -961.1875 1283.25 C-961.8475 1283.25 -962.5075 1283.25 -963.1875 1283.25 C-963.99912913 1242.07006933 -948.96648533 1199.90824169 -938.80957031 1160.31567383 C-935.96035648 1149.20414749 -933.11277618 1138.09681513 -930.48828125 1126.9296875 C-928.38698646 1117.98897966 -926.10128682 1109.1111124 -923.6875 1100.25 C-923.47818848 1099.47865723 -923.26887695 1098.70731445 -923.05322266 1097.91259766 C-917.65082474 1078.02905008 -911.91634453 1058.24198987 -906.12896729 1038.46765137 C-905.16347429 1035.16788738 -904.19959639 1031.86765434 -903.23583984 1028.56738281 C-890.44718101 984.80435406 -877.21371635 941.17864791 -863.89714813 897.57384491 C-863.2039439 895.30384792 -862.51091211 893.03379836 -861.81793213 890.76373291 C-856.65628776 873.85610994 -851.479108 856.9533596 -846.28027344 840.05712891 C-844.9153769 835.62038858 -843.55397156 831.18260544 -842.19628906 826.74365234 C-832.65002659 795.53769475 -822.34077825 764.83801294 -810.43359375 734.43945312 C-809.19560569 731.27074702 -807.97162223 728.09692192 -806.75 724.921875 C-780.37034722 656.66707961 -750.25042136 588.76969281 -714.60253906 524.80664062 C-713.1302482 522.14655954 -711.68321245 519.47401286 -710.2421875 516.796875 C-703.70743999 504.66778518 -696.87677007 492.74902492 -689.79443359 480.93164062 C-688.20862963 478.28526099 -686.62911142 475.63521739 -685.05078125 472.984375 C-684.03420741 471.28103913 -683.01729438 469.57790564 -682 467.875 C-681.56171875 467.14007324 -681.1234375 466.40514648 -680.671875 465.64794922 C-672.57069965 452.14106977 -664.07279795 438.89420683 -655.41113281 425.74145508 C-653.81751357 423.32011759 -652.22893766 420.89552385 -650.640625 418.47070312 C-643.70295688 407.90714638 -636.53807806 397.52985231 -629.1875 387.25 C-628.5598877 386.36642822 -627.93227539 385.48285645 -627.28564453 384.57250977 C-619.75652637 373.98268776 -611.95196014 363.6159169 -604.046875 353.3046875 C-601.11568817 349.47794063 -598.22597285 345.6233829 -595.35717773 341.74975586 C-590.82744463 335.63823488 -586.15433132 329.72696057 -581.18579102 323.96630859 C-578.09006247 320.36455285 -575.1699907 316.6677009 -572.3125 312.875 C-567.05472351 305.91914542 -561.34760733 299.37853059 -555.58544922 292.83886719 C-553.89987897 290.92309855 -552.23201987 288.99225678 -550.5625 287.0625 C-547.2280506 283.25759611 -543.80141314 279.53740616 -540.37670898 275.81396484 C-536.69992484 271.81584724 -533.05868245 267.78729538 -529.43359375 263.7421875 C-527.87241284 262.00995546 -526.30134442 260.28660424 -524.72265625 258.5703125 C-520.71811346 254.21406102 -516.83557012 249.84733957 -513.1875 245.1875 C-506.80493398 237.25521021 -499.37213891 230.27610549 -492.11987305 223.14990234 C-488.83685732 219.9220529 -485.59029468 216.65881879 -482.35546875 213.3828125 C-476.81061378 207.7770352 -471.23218951 202.32148368 -465.1875 197.25 C-463.06191424 195.45902258 -460.93697347 193.6672953 -458.8125 191.875 C-457.96655273 191.16331665 -457.96655273 191.16331665 -457.10351562 190.43725586 C-453.75282215 187.60877975 -450.47878441 184.71814119 -447.25 181.75 C-442.85975796 177.75757924 -438.26005426 174.11011587 -433.57275391 170.47875977 C-429.50020867 167.3134865 -425.53925678 164.04596672 -421.625 160.6875 C-410.6135194 151.27378973 -398.92732207 142.72699113 -387.1875 134.25 C-386.52766113 133.77304687 -385.86782227 133.29609375 -385.18798828 132.8046875 C-374.56573643 125.15195995 -363.71061461 117.90436186 -352.68408203 110.84814453 C-350.26368418 109.29876801 -347.84860002 107.74135541 -345.43359375 106.18359375 C-326.62125839 94.10982986 -307.13944572 83.31818379 -287.1875 73.25 C-286.13191895 72.71681152 -285.07633789 72.18362305 -283.98876953 71.63427734 C-251.74702083 55.46327144 -218.48098395 41.44522809 -184.1875 30.25 C-182.94452148 29.84346191 -181.70154297 29.43692383 -180.42089844 29.01806641 C-122.16448521 10.23590185 -61.18022511 0.0298833 0 0 Z " fill="#FFFFFF" transform="translate(3773.1875,888.75)"/>
<path d="M0 0 C0.94454041 0.00093658 1.88908081 0.00187317 2.86224365 0.00283813 C16.92308699 0.03296703 30.79648058 0.31184136 44.75 2.1875 C45.9138623 2.33815918 47.07772461 2.48881836 48.27685547 2.64404297 C71.01197512 5.65017272 93.38285106 10.1649595 115.75 15.1875 C116.49952942 15.35570251 117.24905884 15.52390503 118.02130127 15.69720459 C123.10220167 16.84075722 128.17755121 18.00706212 133.25 19.1875 C134.47323975 19.47085205 135.69647949 19.7542041 136.95678711 20.04614258 C160.95944151 25.73331833 184.71586264 32.50413857 208.4375 39.25 C209.72648935 39.61603999 211.01549101 39.98203662 212.30450439 40.34799194 C236.58976386 47.24503285 260.84476564 54.2424688 285.03027344 61.48242188 C288.74828053 62.59422892 292.46985934 63.69215565 296.19628906 64.77539062 C317.45156062 70.95961263 336.53353184 78.04350281 355.75 89.1875 C357.38340207 90.10803627 359.01746436 91.02740253 360.65234375 91.9453125 C369.31797306 96.87258553 377.65243315 102.28098778 385.87744141 107.90771484 C387.77155328 109.20223042 389.67240038 110.48637087 391.57421875 111.76953125 C405.81354353 121.41857082 419.84188009 131.3927977 432.83984375 142.67578125 C435.61930771 145.07470115 438.45090303 147.38763899 441.3125 149.6875 C446.00452402 153.4963195 450.4622759 157.51314936 454.86743164 161.64648438 C457.58933921 164.21868048 457.58933921 164.21868048 460.75 166.1875 C460.75 166.8475 460.75 167.5075 460.75 168.1875 C461.31460937 168.43371094 461.87921875 168.67992187 462.4609375 168.93359375 C465.14079272 170.40156905 467.12958803 172.1810669 469.375 174.25 C472.33789167 177.04530458 472.33789167 177.04530458 475.75 179.1875 C475.75 179.8475 475.75 180.5075 475.75 181.1875 C476.29422607 181.40647949 476.83845215 181.62545898 477.39916992 181.85107422 C480.5251299 183.62815439 482.85971815 186.03107315 485.36328125 188.5703125 C485.89592087 189.10341034 486.42856049 189.63650818 486.9773407 190.1857605 C488.10339921 191.31483517 489.2270312 192.44633441 490.34838867 193.58007812 C492.04108744 195.29085871 493.74147489 196.99367492 495.44335938 198.6953125 C501.087343 204.35755457 506.59576561 210.06973508 511.75 216.1875 C512.66226173 217.24392043 513.57500016 218.29992944 514.48828125 219.35546875 C579.55807767 295.68164876 621.59366603 389.70614837 686.75 702.1875 C686.86037598 703.46044922 686.97075195 704.73339844 687.08447266 706.04492188 C689.9118561 740.25848786 690.64227386 774.90911164 688.75 809.1875 C688.68619141 810.36034546 688.68619141 810.36034546 688.62109375 811.55688477 C683.4029869 906.21893391 664.90398371 999.03298349 635.75 1089.1875 C635.34068237 1090.45768982 635.34068237 1090.45768982 634.9230957 1091.75354004 C622.73024412 1129.52296362 608.42214213 1166.73444697 592.19140625 1202.95166016 C590.79032766 1206.09696768 589.42179764 1209.25441277 588.0625 1212.41796875 C571.334483 1251.10620653 552.93825552 1290.47231948 530.97265625 1326.49609375 C528.41302132 1330.69608217 526.05412009 1335.00170919 523.6875 1339.3125 C520.25910678 1345.54054766 516.71161709 1351.67519989 513.0234375 1357.75268555 C509.14013021 1364.15962063 505.4375467 1370.66647055 501.75 1377.1875 C504.19081114 1374.60727798 506.62705365 1372.02278557 509.0625 1369.4375 C510.09793945 1368.34308594 510.09793945 1368.34308594 511.15429688 1367.2265625 C511.82138672 1366.51757812 512.48847656 1365.80859375 513.17578125 1365.078125 C513.78848877 1364.42875977 514.40119629 1363.77939453 515.0324707 1363.11035156 C516.80645219 1361.19507922 516.80645219 1361.19507922 518.34838867 1358.94433594 C518.81092041 1358.36458008 519.27345215 1357.78482422 519.75 1357.1875 C520.41 1357.1875 521.07 1357.1875 521.75 1357.1875 C521.98589844 1356.62289063 522.22179688 1356.05828125 522.46484375 1355.4765625 C524.04234942 1352.66678037 525.99051286 1350.79130949 528.3125 1348.5625 C531.44042054 1345.67679319 531.44042054 1345.67679319 533.75 1342.1875 C534.41 1342.1875 535.07 1342.1875 535.75 1342.1875 C535.75 1341.5275 535.75 1340.8675 535.75 1340.1875 C536.41 1340.1875 537.07 1340.1875 537.75 1340.1875 C537.75 1339.5275 537.75 1338.8675 537.75 1338.1875 C539.21875 1336.7421875 539.21875 1336.7421875 541.25 1335.0625 C544.16624089 1332.59059004 546.90670308 1330.06177217 549.5625 1327.3125 C553.80813854 1323.01758906 558.40502091 1319.26543506 563.12060547 1315.50048828 C564.88680145 1314.07726353 566.63364864 1312.63240917 568.37890625 1311.18359375 C614.4077225 1273.08857725 665.90526474 1253.50793584 724.75 1245.1875 C726.10689941 1244.98833984 726.10689941 1244.98833984 727.49121094 1244.78515625 C787.10104286 1236.17619067 852.94330937 1255.29535695 901.96484375 1289.42578125 C911.73357285 1296.86795507 921.17327252 1304.53490037 930.203125 1312.86328125 C932.32548748 1314.80009977 934.48477973 1316.65681465 936.6875 1318.5 C976.40692314 1353.27476026 997.05768795 1407.58162355 1008.18359375 1457.74951172 C1008.92370887 1460.93519688 1009.80917146 1464.05576055 1010.75 1467.1875 C1011.35585937 1466.26710938 1011.96171875 1465.34671875 1012.5859375 1464.3984375 C1018.00691147 1456.1947844 1023.54764604 1448.09955363 1029.328125 1440.14501953 C1030.33056056 1438.76494942 1031.33031194 1437.38292766 1032.328125 1435.99951172 C1040.72494562 1424.36805139 1049.46917213 1413.12647406 1058.75 1402.1875 C1059.2951123 1401.54329102 1059.84022461 1400.89908203 1060.40185547 1400.23535156 C1067.55543426 1391.80749454 1074.96693386 1383.65458378 1082.546875 1375.609375 C1085.16617003 1372.82503687 1087.72064212 1369.9916056 1090.25 1367.125 C1093.97989023 1362.95588906 1097.8665642 1358.96317837 1101.8125 1355 C1102.37839844 1354.42950928 1102.94429687 1353.85901855 1103.52734375 1353.27124023 C1118.2577316 1338.59388518 1135.21671435 1326.28252512 1152.75 1315.1875 C1153.55195801 1314.67944824 1154.35391602 1314.17139648 1155.18017578 1313.64794922 C1197.71553078 1286.92412213 1244.52072622 1276.07045261 1294.5546875 1276.01953125 C1295.82575851 1276.01538712 1297.09682953 1276.01124298 1298.40641785 1276.00697327 C1302.47929225 1275.99574974 1306.55211505 1275.99729591 1310.625 1276 C1312.02472941 1275.99994394 1313.42445882 1275.99988288 1314.82418823 1275.99981689 C1377.5314908 1276.02183928 1377.5314908 1276.02183928 1398.9375 1283.8125 C1400.42540039 1284.34580933 1400.42540039 1284.34580933 1401.94335938 1284.88989258 C1438.90792527 1298.35343342 1470.90491044 1319.93445261 1499.7265625 1346.41015625 C1501.82800791 1348.33509006 1501.82800791 1348.33509006 1504.75 1350.1875 C1504.75 1350.8475 1504.75 1351.5075 1504.75 1352.1875 C1505.31332031 1352.42597656 1505.87664063 1352.66445312 1506.45703125 1352.91015625 C1541.43970995 1372.39795171 1566.39432382 1433.76780582 1576.73339844 1469.59521484 C1578.65255129 1476.74273383 1580.33803125 1483.92328535 1581.75 1491.1875 C1582.01852783 1492.44763916 1582.28705566 1493.70777832 1582.5637207 1495.00610352 C1585.54279635 1510.14292234 1585.16780669 1525.45139332 1585.0725708 1540.80487061 C1585.05919476 1543.72044121 1585.06440299 1546.63585762 1585.06942749 1549.55144501 C1585.09074027 1565.84134269 1584.77115983 1582.00033105 1582.75 1598.1875 C1582.66565704 1598.86571808 1582.58131409 1599.54393616 1582.49441528 1600.2427063 C1581.96368587 1604.36625639 1581.32284488 1608.46424199 1580.625 1612.5625 C1580.41254639 1613.81160156 1580.20009277 1615.06070312 1579.98120117 1616.34765625 C1571.18611888 1665.95303096 1553.10805792 1713.6857188 1527.75 1757.1875 C1527.28480957 1757.98752441 1526.81961914 1758.78754883 1526.34033203 1759.61181641 C1508.17153877 1790.71062292 1486.76899543 1819.73011925 1464.75 1848.1875 C1464.26934082 1848.80995605 1463.78868164 1849.43241211 1463.29345703 1850.07373047 C1457.10176668 1858.07783139 1450.71447923 1865.88299814 1444.13378906 1873.56982422 C1441.7893827 1876.31047993 1439.45668176 1879.06101789 1437.125 1881.8125 C1436.66319336 1882.35616211 1436.20138672 1882.89982422 1435.72558594 1883.45996094 C1432.9270384 1886.7637189 1430.20129009 1890.1157995 1427.5 1893.5 C1422.88172414 1899.19503234 1417.8625645 1904.49189454 1412.80175781 1909.79418945 C1412.1775293 1910.44991943 1411.55330078 1911.10564941 1410.91015625 1911.78125 C1410.34949463 1912.36583984 1409.78883301 1912.95042969 1409.21118164 1913.55273438 C1407.55224132 1915.33147958 1407.55224132 1915.33147958 1405.75 1918.1875 C1405.09 1918.1875 1404.43 1918.1875 1403.75 1918.1875 C1403.48662842 1918.77756836 1403.22325684 1919.36763672 1402.9519043 1919.97558594 C1401.69798348 1922.28322815 1400.39804739 1923.75477394 1398.51953125 1925.578125 C1397.88499023 1926.20098389 1397.25044922 1926.82384277 1396.59667969 1927.46557617 C1395.92540039 1928.11631104 1395.25412109 1928.7670459 1394.5625 1929.4375 C1390.04421098 1933.88409544 1385.5916077 1938.30421483 1381.5 1943.15234375 C1378.61338261 1946.50932514 1375.58292358 1949.73615388 1372.56738281 1952.97729492 C1370.60427499 1955.1009504 1368.74095274 1957.20003336 1367.046875 1959.546875 C1366.61890625 1960.08828125 1366.1909375 1960.6296875 1365.75 1961.1875 C1365.09 1961.1875 1364.43 1961.1875 1363.75 1961.1875 C1363.75 1961.8475 1363.75 1962.5075 1363.75 1963.1875 C1363.09 1963.1875 1362.43 1963.1875 1361.75 1963.1875 C1361.75 1963.8475 1361.75 1964.5075 1361.75 1965.1875 C1360.38671875 1966.52734375 1360.38671875 1966.52734375 1358.4375 1968.125 C1352.89081936 1972.83276987 1347.85555087 1978.01326459 1342.75 1983.1875 C1341.87988281 1984.05632812 1341.00976562 1984.92515625 1340.11328125 1985.8203125 C1338.76993397 1987.16588019 1337.43301568 1988.51813436 1336.1171875 1989.890625 C1332.83171143 1993.29651118 1329.39876454 1996.31259679 1325.6875 1999.25 C1320.33616686 2003.54728267 1315.55274928 2008.26714389 1310.74755859 2013.16088867 C1307.16530315 2016.80217048 1303.49326947 2020.21989662 1299.59008789 2023.51782227 C1297.82031769 2025.12369442 1296.32653206 2026.7755671 1294.79296875 2028.60546875 C1290.15401547 2033.96778216 1285.15611807 2038.96743058 1280.14501953 2043.9777832 C1278.51172552 2045.61325882 1276.8866153 2047.25657708 1275.26171875 2048.90039062 C1269.46210739 2054.72998663 1263.57729292 2060.17744109 1257.10473633 2065.26367188 C1254.20221125 2067.6350454 1251.63536051 2070.22797926 1249.08984375 2072.97265625 C1247.75 2074.1875 1247.75 2074.1875 1245.75 2074.1875 C1245.75 2074.8475 1245.75 2075.5075 1245.75 2076.1875 C1244.47254944 2077.44618225 1244.47254944 2077.44618225 1242.59008789 2078.98071289 C1236.15147873 2084.46190871 1230.27805869 2090.5155874 1224.30859375 2096.49609375 C1223.0141481 2097.78986434 1221.71955416 2099.08348657 1220.42481995 2100.37696838 C1217.72274849 2103.07757239 1215.02247619 2105.77995893 1212.32348633 2108.48364258 C1208.8818801 2111.93094549 1205.43580295 2115.3737385 1201.98835659 2118.81519985 C1199.31752289 2121.48240212 1196.64909756 2124.15200368 1193.98137093 2126.82231331 C1192.71237417 2128.0919722 1191.4426479 2129.36090243 1190.17214775 2130.62905693 C1183.81477749 2136.97726097 1177.55398823 2143.32121329 1171.75 2150.1875 C1169.30331334 2152.89633166 1166.84005627 2155.58914908 1164.375 2158.28125 C1163.00049369 2159.80302484 1161.62969745 2161.32887982 1160.30078125 2162.890625 C1154.31428215 2169.90628011 1147.70475973 2176.2961467 1141.14746094 2182.76953125 C1135.67716898 2188.17609816 1130.25282115 2193.5703361 1125.25683594 2199.42675781 C1122.40865644 2202.75486387 1119.39411843 2205.93429594 1116.40625 2209.13671875 C1113.77417554 2211.94226461 1113.77417554 2211.94226461 1111.75 2215.1875 C1111.09 2215.1875 1110.43 2215.1875 1109.75 2215.1875 C1109.41162109 2216.02087891 1109.41162109 2216.02087891 1109.06640625 2216.87109375 C1107.36105586 2219.87190319 1105.18293684 2221.86687537 1102.6875 2224.25 C1098.08614252 2228.72544781 1093.99095235 2233.42277386 1089.98828125 2238.44921875 C1087.71158439 2241.23449711 1085.32415857 2243.86570819 1082.875 2246.5 C1078.14707881 2251.64380314 1073.84652947 2257.02916181 1069.58203125 2262.5546875 C1067.7455762 2264.93023301 1065.87274451 2267.2647578 1063.94921875 2269.5703125 C1035.11259991 2304.28944406 1014.17841641 2345.30720741 1007.75 2390.1875 C1007.59422485 2391.27285034 1007.59422485 2391.27285034 1007.43530273 2392.38012695 C1005.4034267 2408.32323235 1005.88689994 2425.3910859 1008.75 2441.1875 C1008.86827148 2441.85523437 1008.98654297 2442.52296875 1009.10839844 2443.2109375 C1015.47951613 2478.09807562 1031.1286757 2512.148691 1052.75 2540.1875 C1053.81347656 2541.64736328 1053.81347656 2541.64736328 1054.8984375 2543.13671875 C1061.54345662 2552.11080603 1069.03418166 2560.15736161 1076.79980469 2568.16992188 C1078.57049514 2570.00179291 1080.32223851 2571.84971971 1082.0703125 2573.703125 C1101.2676977 2593.80683736 1124.78265871 2606.78510251 1150.75 2616.1875 C1151.97807373 2616.64987061 1151.97807373 2616.64987061 1153.23095703 2617.12158203 C1211.48074176 2638.93565856 1275.71438308 2646.02951362 1336.98770142 2654.78735352 C1339.41852348 2655.13948232 1341.84670988 2655.50442971 1344.27416992 2655.87890625 C1430.7250843 2669.0271607 1536.45390374 2612.09556099 1605.75 2566.1875 C1607.26950945 2565.18746687 1608.78904126 2564.18746772 1610.30859375 2563.1875 C1623.78643048 2554.2884352 1636.89331223 2544.96561517 1649.75 2535.1875 C1650.37213379 2534.71473633 1650.99426758 2534.24197266 1651.63525391 2533.75488281 C1662.73525766 2525.31186659 1673.76478062 2516.77922862 1684.75 2508.1875 C1685.68328125 2507.46046875 1686.6165625 2506.7334375 1687.578125 2505.984375 C1697.40964908 2498.23635271 1706.82407279 2489.94787065 1716 2481.4375 C1720.45811385 2477.31225865 1725.0630667 2473.46505676 1729.80078125 2469.66796875 C1734.08040274 2466.068552 1738.12617318 2462.22792786 1742.15576172 2458.35205078 C1746.53891105 2454.1875 1746.53891105 2454.1875 1748.75 2454.1875 C1748.75 2453.5275 1748.75 2452.8675 1748.75 2452.1875 C1750.32633385 2450.79696976 1751.96404915 2449.47577212 1753.625 2448.1875 C1758.56311175 2444.24461745 1762.99795902 2440.04785691 1767.41796875 2435.5234375 C1769.4635397 2433.47444014 1771.54942291 2431.56614898 1773.75 2429.6875 C1777.82839727 2426.20112814 1781.55021248 2422.40372297 1785.31640625 2418.5859375 C1787.3776938 2416.55442778 1789.47186556 2414.67018941 1791.6875 2412.8125 C1796.64285327 2408.56221703 1800.90644482 2403.6783968 1805.26171875 2398.83300781 C1807.81482033 2396.01018881 1810.41085587 2393.22721449 1813 2390.4375 C1816.7372977 2386.39866428 1820.42595019 2382.3286414 1824.0234375 2378.1640625 C1826.90956544 2374.86003368 1829.8757437 2371.62794968 1832.83203125 2368.38671875 C1834.87519492 2366.13927481 1834.87519492 2366.13927481 1836.75 2363.1875 C1837.41 2363.1875 1838.07 2363.1875 1838.75 2363.1875 C1838.95496094 2362.66285156 1839.15992187 2362.13820313 1839.37109375 2361.59765625 C1841.35514358 2358.12978445 1844.05525893 2355.4951883 1846.8125 2352.625 C1851.57930206 2347.58018355 1856.10824232 2342.43979981 1860.44921875 2337.01953125 C1863.1090856 2333.74550159 1865.86224018 2330.56209095 1868.625 2327.375 C1873.13648701 2322.1551981 1877.45194726 2316.8164484 1881.67749023 2311.36352539 C1884.74579647 2307.4193462 1887.92615344 2303.59787705 1891.1875 2299.8125 C1902.21075138 2286.9471356 1911.90560404 2272.95948389 1921.75 2259.1875 C1922.27126465 2258.45853516 1922.7925293 2257.72957031 1923.32958984 2256.97851562 C1929.91072266 2247.75791311 1936.32127416 2238.44258595 1942.55859375 2228.98632812 C1943.70801564 2227.2508895 1944.86739522 2225.52265967 1946.03125 2223.796875 C1958.22886154 2205.68682794 1969.81116543 2187.16820523 1981.34765625 2168.6328125 C1981.908479 2167.7363501 1982.46930176 2166.8398877 1983.04711914 2165.91625977 C1984.21552393 2164.04396438 1985.37575841 2162.16655287 1986.52905273 2160.28491211 C1989.86784924 2154.90307379 1993.27624804 2150.04548093 1997.6875 2145.5 C1998.18056641 2144.97728516 1998.67363281 2144.45457031 1999.18164062 2143.91601562 C2000.36317874 2142.66565005 2001.55535607 2141.42534986 2002.75 2140.1875 C2005.07942033 2143.68163049 2004.90947122 2144.26153868 2004.17407227 2148.21899414 C2002.94147793 2154.18512754 2000.70576847 2159.27251787 1997.96484375 2164.68359375 C1997.24058449 2166.15426552 1997.24058449 2166.15426552 1996.50169373 2167.65464783 C1995.46535861 2169.75416099 1994.42268943 2171.85055766 1993.37420654 2173.94403076 C1991.74046608 2177.20653882 1990.12433587 2180.47725346 1988.51220703 2183.75048828 C1985.70667808 2189.437506 1982.87981208 2195.11357933 1980.04370117 2200.78540039 C1978.31317338 2204.24865239 1976.58910613 2207.71507168 1974.86523438 2211.18164062 C1967.79497359 2225.35792742 1960.44010543 2239.33833341 1952.75 2253.1875 C1952.03813719 2254.47749726 1951.32674273 2255.76775317 1950.6159668 2257.05834961 C1948.85468322 2260.25092146 1947.08583952 2263.43911168 1945.3125 2266.625 C1944.68400146 2267.75421875 1944.05550293 2268.8834375 1943.40795898 2270.046875 C1941.52398407 2273.4282103 1939.63748104 2276.80812081 1937.75 2280.1875 C1937.19699219 2281.1789502 1936.64398437 2282.17040039 1936.07421875 2283.19189453 C1927.87244541 2297.8767606 1919.3845552 2312.38068688 1910.75976562 2326.82080078 C1908.79882593 2330.10570826 1906.84430591 2333.3943654 1904.890625 2336.68359375 C1894.940185 2353.39771475 1884.66390858 2369.87762605 1873.84985352 2386.04760742 C1871.7000176 2389.26223825 1869.55822515 2392.48210958 1867.41796875 2395.703125 C1855.70623896 2413.31401987 1843.85822084 2430.77445806 1831.42041016 2447.88330078 C1829.73545313 2450.20756626 1828.05972519 2452.53821431 1826.38671875 2454.87109375 C1819.99747118 2463.77417428 1813.47927674 2472.53872465 1806.75 2481.1875 C1805.55246708 2482.75803498 1804.35494458 2484.32857826 1803.15844727 2485.89990234 C1797.84020275 2492.86966331 1792.33122676 2499.67563181 1786.78515625 2506.46484375 C1784.35588827 2509.43877052 1781.95134082 2512.43093873 1779.5625 2515.4375 C1775.86127786 2520.07957903 1772.05978559 2524.63434162 1768.25 2529.1875 C1765.91860276 2531.98517669 1763.6114168 2534.80061651 1761.3125 2537.625 C1758.04955852 2541.62769447 1754.72743318 2545.57261127 1751.375 2549.5 C1747.50475637 2554.03663871 1743.77884535 2558.6626537 1740.125 2563.375 C1735.58377929 2569.22368775 1730.76589671 2574.73836844 1725.75 2580.1875 C1722.51855364 2583.81448136 1719.34205103 2587.4852364 1716.2109375 2591.19921875 C1704.40821959 2605.17810739 1691.77211844 2618.34485946 1678.75 2631.1875 C1677.08212341 2632.85295587 1675.41525722 2634.51942508 1673.75 2636.1875 C1672.08333333 2637.85416667 1670.41666667 2639.52083333 1668.75 2641.1875 C1668.07839844 2641.87070313 1667.40679688 2642.55390625 1666.71484375 2643.2578125 C1662.54883132 2647.47384567 1658.32562995 2651.5347993 1653.82421875 2655.390625 C1651.54842282 2657.3621243 1649.34077333 2659.39884395 1647.125 2661.4375 C1642.00689911 2666.0603008 1636.62396171 2670.28212027 1631.1796875 2674.5078125 C1628.22094121 2676.80724632 1625.32138326 2679.16949048 1622.4375 2681.5625 C1606.81427458 2694.39504679 1590.41099304 2706.19530564 1573.54541016 2717.33325195 C1569.29578517 2720.14205276 1565.09162597 2723.01061469 1560.90039062 2725.90576172 C1551.35916268 2732.49107222 1541.66650234 2738.78504903 1531.81884766 2744.90185547 C1530.04639054 2746.00331395 1528.27857859 2747.11224132 1526.51171875 2748.22265625 C1523.27573546 2750.24139549 1520.01926402 2752.22336038 1516.75 2754.1875 C1515.95126465 2754.66880371 1515.1525293 2755.15010742 1514.32958984 2755.64599609 C1490.96664558 2769.66376265 1466.85481425 2782.55507357 1441.75 2793.1875 C1440.71681641 2793.62513672 1439.68363281 2794.06277344 1438.61914062 2794.51367188 C1395.93767656 2812.37149512 1349.6907176 2824.72795503 1303.75 2830.1875 C1302.74598145 2830.30915527 1301.74196289 2830.43081055 1300.70751953 2830.55615234 C1295.06260026 2831.22321646 1289.41761134 2831.75796013 1283.75 2832.1875 C1283.06180176 2832.24389648 1282.37360352 2832.30029297 1281.66455078 2832.35839844 C1193.88421228 2839.36755374 1095.35834179 2817.74477265 977.4597168 2734.76220703 C967.63032162 2726.3749259 958.14096345 2717.63146607 948.9375 2708.5625 C948.41526855 2708.05332031 947.89303711 2707.54414063 947.35498047 2707.01953125 C946.11342534 2705.78092919 944.92599522 2704.48851093 943.75 2703.1875 C943.75 2702.5275 943.75 2701.8675 943.75 2701.1875 C943.09 2701.1875 942.43 2701.1875 941.75 2701.1875 C940.37508701 2699.67962839 939.07635538 2698.10210239 937.8125 2696.5 C934.87103467 2692.81142127 931.89971862 2689.18381441 928.79711914 2685.63037109 C915.69216386 2670.5181386 905.78446206 2653.99890257 896.75 2636.1875 C896.3365332 2635.38070801 895.92306641 2634.57391602 895.49707031 2633.74267578 C882.72019213 2608.42310772 874.84638432 2579.68551556 868.24731445 2552.22229004 C867.72745295 2550.09524748 867.18513929 2547.97484692 866.63867188 2545.85449219 C857.6594655 2510.74303218 856.4580756 2473.95434541 862.75 2438.1875 C863.02336182 2436.61718018 863.02336182 2436.61718018 863.30224609 2435.01513672 C871.7536399 2387.74522735 888.72600955 2341.17393387 918.75 2303.1875 C919.64658865 2302.03574383 920.54238682 2300.88337199 921.4375 2299.73046875 C934.53625144 2282.90588073 948.21245462 2266.68495234 962.85986328 2251.19091797 C964.84915551 2249.08240182 966.8295923 2246.96583195 968.80859375 2244.84765625 C988.28964808 2224.01950773 988.28964808 2224.01950773 997.921875 2215.796875 C999.77937988 2214.16163566 1001.51606009 2212.45268207 1003.25 2210.6875 C1006.23794042 2207.65234607 1009.3667075 2204.84470624 1012.58984375 2202.0625 C1015.83303627 2199.24743235 1019.01419406 2196.36491327 1022.19921875 2193.484375 C1023.81806328 2192.0266712 1025.44480592 2190.5776536 1027.08203125 2189.140625 C1033.08237583 2183.84678866 1038.72039245 2178.24871399 1044.35107422 2172.56933594 C1048.66119424 2168.23617887 1053.07940012 2164.13046958 1057.75 2160.1875 C1064.01126857 2154.77327691 1069.87793883 2149.07799512 1075.6875 2143.1875 C1081.04867352 2137.75666009 1086.46204225 2132.73641126 1092.47265625 2128.02734375 C1094.57245955 2126.33093319 1096.44202445 2124.5672444 1098.3125 2122.625 C1099.116875 2121.820625 1099.92125 2121.01625 1100.75 2120.1875 C1101.41 2120.1875 1102.07 2120.1875 1102.75 2120.1875 C1102.75 2119.5275 1102.75 2118.8675 1102.75 2118.1875 C1104.32421875 2116.6015625 1104.32421875 2116.6015625 1106.4375 2114.8125 C1107.53578125 2113.87664063 1107.53578125 2113.87664063 1108.65625 2112.921875 C1110.23355286 2111.61530323 1111.83088088 2110.33285 1113.4375 2109.0625 C1117.09481196 2106.09711192 1120.29071348 2102.66049296 1123.57421875 2099.29296875 C1124.5286209 2098.32028804 1125.48304812 2097.34763192 1126.4375 2096.375 C1126.92283203 2095.87291016 1127.40816406 2095.37082031 1127.90820312 2094.85351562 C1129.15124606 2093.59332727 1130.44699892 2092.38558956 1131.75 2091.1875 C1132.41 2091.1875 1133.07 2091.1875 1133.75 2091.1875 C1133.75 2090.5275 1133.75 2089.8675 1133.75 2089.1875 C1135.25390625 2087.70703125 1135.25390625 2087.70703125 1137.3125 2086 C1140.0753868 2083.65470242 1142.71679757 2081.27920595 1145.25 2078.6875 C1148.34410347 2075.53675391 1151.60802818 2072.64175143 1154.95703125 2069.765625 C1156.40520191 2068.49098242 1157.77866141 2067.13176856 1159.125 2065.75 C1160.75 2064.1875 1160.75 2064.1875 1162.75 2064.1875 C1162.75 2063.5275 1162.75 2062.8675 1162.75 2062.1875 C1164.04296875 2060.8828125 1164.04296875 2060.8828125 1165.9375 2059.3125 C1169.87875432 2055.96349141 1173.70382192 2052.51115724 1177.5 2049 C1178.05453857 2048.48904785 1178.60907715 2047.9780957 1179.18041992 2047.45166016 C1181.52068784 2045.28776947 1183.80862919 2043.12634369 1186.015625 2040.82421875 C1187.75 2039.1875 1187.75 2039.1875 1189.75 2039.1875 C1189.75 2038.5275 1189.75 2037.8675 1189.75 2037.1875 C1191.39453125 2035.56640625 1191.39453125 2035.56640625 1193.5625 2033.75 C1196.57463265 2031.21410668 1196.57463265 2031.21410668 1199.38671875 2028.46484375 C1200.75 2027.1875 1200.75 2027.1875 1202.75 2027.1875 C1202.9975 2026.56875 1203.245 2025.95 1203.5 2025.3125 C1204.95628639 2022.83681313 1206.12812506 2022.23624998 1208.75 2021.1875 C1208.75 2020.5275 1208.75 2019.8675 1208.75 2019.1875 C1210.22753906 2017.71582031 1210.22753906 2017.71582031 1212.265625 2016.015625 C1216.46633156 2012.44299242 1220.49377527 2008.72551969 1224.5 2004.9375 C1229.29687823 2000.4165928 1234.11523492 1995.92574444 1239 1991.5 C1243.81045592 1987.12446201 1248.41366658 1982.58074203 1252.91894531 1977.89379883 C1254.15991702 1976.62216235 1255.45097998 1975.39977765 1256.75 1974.1875 C1257.41 1974.1875 1258.07 1974.1875 1258.75 1974.1875 C1258.75 1973.5275 1258.75 1972.8675 1258.75 1972.1875 C1260.25390625 1970.70703125 1260.25390625 1970.70703125 1262.3125 1969 C1267.10485113 1964.92014002 1271.77552005 1960.76093307 1275.6171875 1955.75390625 C1277.9042005 1953.00195105 1280.31417799 1950.95850301 1283.125 1948.75 C1286.35868894 1946.16822966 1289.44672933 1943.61106228 1292.3125 1940.625 C1293.116875 1939.820625 1293.92125 1939.01625 1294.75 1938.1875 C1295.41 1938.1875 1296.07 1938.1875 1296.75 1938.1875 C1296.75 1937.5275 1296.75 1936.8675 1296.75 1936.1875 C1298.46484375 1934.53125 1298.46484375 1934.53125 1300.6875 1932.6875 C1303.67045179 1930.29823001 1303.67045179 1930.29823001 1305.75 1927.1875 C1306.41 1927.1875 1307.07 1927.1875 1307.75 1927.1875 C1308.02239502 1926.59291992 1308.29479004 1925.99833984 1308.57543945 1925.38574219 C1309.72029488 1923.24309444 1310.87644698 1921.76743363 1312.54296875 1920.015625 C1313.08711426 1919.43796387 1313.63125977 1918.86030273 1314.19189453 1918.26513672 C1315.05596924 1917.36045654 1315.05596924 1917.36045654 1315.9375 1916.4375 C1317.12714061 1915.17526895 1318.3159508 1913.91225468 1319.50390625 1912.6484375 C1320.07125488 1912.04612305 1320.63860352 1911.44380859 1321.22314453 1910.82324219 C1323.52987479 1908.35200894 1325.73756829 1905.80141337 1327.9453125 1903.2421875 C1330.33782286 1900.51824713 1332.79429694 1897.85429147 1335.25 1895.1875 C1341.8789339 1887.97674761 1348.25734817 1880.63116644 1354.4375 1873.03125 C1356.65578063 1870.30336436 1358.8898723 1867.58908363 1361.125 1864.875 C1382.10112856 1839.22940282 1402.38771972 1812.6989287 1420.55712891 1784.98779297 C1421.74253246 1783.19877009 1422.95088251 1781.4277475 1424.16796875 1779.66015625 C1430.82367602 1769.94799956 1436.64753735 1759.83530883 1442.40283203 1749.56884766 C1443.54732616 1747.54576035 1444.71289917 1745.5398008 1445.90234375 1743.54296875 C1467.32756764 1707.3084899 1480.66371599 1667.13822797 1480.98828125 1624.84765625 C1480.99789383 1623.78303665 1481.00750641 1622.71841705 1481.01741028 1621.62153625 C1481.04211258 1618.16432451 1481.05468793 1614.70728985 1481.0625 1611.25 C1481.06578308 1610.0658551 1481.06906616 1608.88171021 1481.07244873 1607.66168213 C1481.08740388 1590.88002793 1480.48323417 1574.26838355 1478.875 1557.5625 C1478.78795807 1556.65605743 1478.70091614 1555.74961487 1478.61123657 1554.81570435 C1476.72760616 1535.33107012 1476.72760616 1535.33107012 1471.625 1516.5 C1471.31933105 1515.64768799 1471.01366211 1514.79537598 1470.69873047 1513.91723633 C1460.9721942 1487.40934697 1445.88894088 1464.92338999 1426.25244141 1444.73681641 C1425.00131234 1443.44665309 1423.76960215 1442.13769346 1422.54296875 1440.82421875 C1397.54986889 1414.56830963 1359.70646163 1398.17723221 1325.25 1389.25 C1324.17733887 1388.96878296 1324.17733887 1388.96878296 1323.08300781 1388.68188477 C1309.4986635 1385.42596913 1295.53402082 1384.80285357 1281.625 1384.875 C1280.86720245 1384.87715515 1280.10940491 1384.8793103 1279.3286438 1384.88153076 C1249.3547182 1385.01734588 1220.5542103 1390.95844644 1192.75 1402.1875 C1192.01072266 1402.48269531 1191.27144531 1402.77789063 1190.50976562 1403.08203125 C1166.99139177 1412.57608447 1146.02436541 1426.76874569 1127.29443359 1443.79003906 C1125.95769843 1444.99956674 1124.59981218 1446.18564122 1123.23828125 1447.3671875 C1111.58284514 1457.53848488 1100.19949219 1468.56866281 1090.66796875 1480.7734375 C1088.7135763 1483.2333449 1086.64093329 1485.51397557 1084.5 1487.8125 C1078.0842329 1494.87317957 1072.45182982 1502.54935052 1066.75 1510.1875 C1066.17024414 1510.96367676 1065.59048828 1511.73985352 1064.99316406 1512.53955078 C1058.29667661 1521.52557803 1051.72347616 1530.58860668 1045.29321289 1539.7668457 C1041.48038471 1545.19379011 1037.57011817 1550.54361557 1033.625 1555.875 C1027.91720153 1563.58911981 1022.29358884 1571.35476751 1016.75 1579.1875 C1015.78516135 1580.54687862 1014.82031736 1581.90625345 1013.85546875 1583.265625 C1007.52868938 1592.19219871 1001.28895629 1601.17497005 995.10888672 1610.20361328 C992.36937249 1614.20312687 989.62000235 1618.19587305 986.87255859 1622.18994141 C984.59024029 1625.5085731 982.31017493 1628.82870284 980.03515625 1632.15234375 C972.32949576 1643.40147305 964.48113871 1654.54666764 956.5703125 1665.65234375 C956.0455835 1666.39105713 955.52085449 1667.12977051 954.98022461 1667.89086914 C953.99636386 1669.27581001 953.01041433 1670.65927102 952.02172852 1672.04077148 C948.70652491 1676.71174317 945.61906245 1681.50338987 942.55981445 1686.34521484 C934.08481088 1699.65507476 925.19651272 1712.36125919 914.75 1724.1875 C913.19986047 1726.07641174 911.65790898 1727.97207851 910.125 1729.875 C907.20107626 1733.47367537 904.18900765 1736.95097827 901.0625 1740.375 C897.97139693 1743.76936103 895.16613078 1747.22469518 892.46875 1750.93359375 C889.75413394 1754.49344254 886.82255343 1757.86965594 883.9140625 1761.27099609 C881.15766961 1764.50137682 878.48237906 1767.77186634 875.875 1771.125 C864.63929776 1785.19265178 854.15263363 1796.51603861 835.75 1800.1875 C828.52172345 1800.70380547 822.49621669 1798.55885503 816.75 1794.1875 C810.34040551 1786.46311689 810.0273747 1777.85004529 810.55908203 1768.21533203 C812.27172688 1750.02450321 824.89466832 1734.18864607 834.96972656 1719.74365234 C877.10826668 1659.24029044 906.23707504 1586.65886163 893.75 1511.88671875 C887.44661448 1477.05264463 873.06333287 1444.70606386 850.75 1417.1875 C850.01136719 1416.23359375 849.27273438 1415.2796875 848.51171875 1414.296875 C834.96350226 1397.06681638 816.68667134 1384.95742912 796.75 1376.1875 C796.12480469 1375.91212402 795.49960938 1375.63674805 794.85546875 1375.35302734 C750.94216226 1356.49894466 697.88111296 1361.47511604 654.24804688 1378.33056641 C635.73770301 1385.78666974 618.60929948 1395.06798597 602.75 1407.1875 C601.78191406 1407.92355469 600.81382813 1408.65960937 599.81640625 1409.41796875 C592.03193519 1415.58308476 584.91517856 1422.50608163 577.71484375 1429.33154297 C574.78775295 1432.09642173 571.83502739 1434.83296292 568.875 1437.5625 C568.3485791 1438.04831543 567.8221582 1438.53413086 567.27978516 1439.03466797 C563.2116914 1442.78048583 559.10232371 1446.47884246 554.96875 1450.15234375 C550.76852068 1454.00501888 546.82027749 1458.12344078 542.81330872 1462.17549133 C540.24335166 1464.77222124 537.66806271 1467.36363621 535.0925293 1469.95483398 C533.73203391 1471.32547377 532.37332623 1472.6978902 531.01635742 1474.07202148 C529.05330991 1476.0591961 527.0839891 1478.03995706 525.11328125 1480.01953125 C524.50494949 1480.63818558 523.89661774 1481.2568399 523.26985168 1481.89424133 C521.8007112 1483.3637751 520.27984713 1484.7812742 518.75 1486.1875 C518.09 1486.1875 517.43 1486.1875 516.75 1486.1875 C516.48968994 1486.77523193 516.22937988 1487.36296387 515.96118164 1487.96850586 C514.6705997 1490.33296852 513.30805479 1491.82903336 511.37109375 1493.69140625 C510.70126465 1494.34439697 510.03143555 1494.9973877 509.34130859 1495.67016602 C508.63055176 1496.35651123 507.91979492 1497.04285645 507.1875 1497.75 C500.88771018 1503.93265946 495.17736019 1510.22103766 489.75 1517.1875 C487.80516784 1519.59217317 485.83457482 1521.89955202 483.75 1524.1875 C483.09 1524.1875 482.43 1524.1875 481.75 1524.1875 C481.75 1524.8475 481.75 1525.5075 481.75 1526.1875 C479.875 1528.3125 479.875 1528.3125 477.75 1530.1875 C477.09 1530.1875 476.43 1530.1875 475.75 1530.1875 C475.75 1530.8475 475.75 1531.5075 475.75 1532.1875 C474.45703125 1533.45703125 474.45703125 1533.45703125 472.5625 1535 C464.36204372 1541.97476531 456.67007609 1549.72820969 449.7109375 1557.94140625 C446.28073766 1561.87042001 442.68143617 1565.64677145 439.10351562 1569.44116211 C438.55630859 1570.02518799 438.00910156 1570.60921387 437.4453125 1571.2109375 C436.95047363 1571.73606934 436.45563477 1572.26120117 435.94580078 1572.80224609 C434.64287448 1574.19680819 434.64287448 1574.19680819 433.75 1576.1875 C433.09 1576.1875 432.43 1576.1875 431.75 1576.1875 C431.48968994 1576.77523193 431.22937988 1577.36296387 430.96118164 1577.96850586 C429.6705997 1580.33296852 428.30805479 1581.82903336 426.37109375 1583.69140625 C425.70142578 1584.34431641 425.03175781 1584.99722656 424.34179688 1585.66992188 C423.63087891 1586.35634766 422.91996094 1587.04277344 422.1875 1587.75 C416.62846795 1593.20032209 411.50794535 1598.67977103 406.6953125 1604.80078125 C404.20910942 1607.85112277 401.46955951 1610.55547683 398.6484375 1613.29296875 C396.7499406 1615.18755928 394.9964372 1617.15262408 393.25 1619.1875 C390.85323412 1621.97646393 388.37040609 1624.60740785 385.75 1627.1875 C382.57860687 1630.31644619 379.62457542 1633.55887378 376.71875 1636.93359375 C374.33499497 1639.66261488 371.89031672 1642.33326744 369.4375 1645 C368.96739502 1645.51199951 368.49729004 1646.02399902 368.01293945 1646.55151367 C365.72452297 1649.04296318 363.43257449 1651.53102178 361.13671875 1654.015625 C356.2588384 1659.32591466 351.62378262 1664.75933566 347.09765625 1670.37109375 C344.57126145 1673.40192677 341.93682092 1676.29972571 339.25 1679.1875 C333.36651228 1685.51471445 327.83269005 1692.10929903 322.62109375 1699.00390625 C322.00363281 1699.72449219 321.38617187 1700.44507813 320.75 1701.1875 C320.09 1701.1875 319.43 1701.1875 318.75 1701.1875 C318.38068359 1702.03634766 318.38068359 1702.03634766 318.00390625 1702.90234375 C316.53463776 1705.57998258 314.77247565 1707.51793612 312.6875 1709.75 C309.43892508 1713.28918226 306.32531784 1716.88310168 303.3125 1720.625 C299.45174863 1725.398903 295.37562925 1729.92138428 291.21875 1734.4375 C288.02239601 1737.99799559 285.03826851 1741.71015827 282.03515625 1745.43359375 C279.66633975 1748.28832133 277.20073583 1751.0218921 274.6875 1753.75 C270.92784886 1757.8383323 267.42779184 1762.04240051 263.99609375 1766.40625 C260.15775958 1771.15910901 256.11431635 1775.73380203 252.09765625 1780.3359375 C249.98132918 1782.76240026 247.88332313 1785.20194719 245.80859375 1787.6640625 C239.46993279 1795.17567194 232.88599539 1802.39881888 226.0925293 1809.50341797 C225.44195557 1810.18549316 224.79138184 1810.86756836 224.12109375 1811.5703125 C223.54286865 1812.17246582 222.96464355 1812.77461914 222.36889648 1813.39501953 C220.67824064 1815.19767536 220.67824064 1815.19767536 219.16430664 1817.41357422 C218.69758545 1817.99896973 218.23086426 1818.58436523 217.75 1819.1875 C217.09 1819.1875 216.43 1819.1875 215.75 1819.1875 C215.34974609 1820.07695312 215.34974609 1820.07695312 214.94140625 1820.984375 C212.97312627 1824.62407963 210.33735408 1827.13182519 206.75 1829.1875 C203.67548522 1829.66575785 200.83113839 1829.56478225 197.75 1829.1875 C198.04831735 1822.92283563 199.12269312 1817.09653319 200.8125 1811.0625 C200.97967529 1810.42578369 201.14685059 1809.78906738 201.3190918 1809.13305664 C203.46868133 1801.80172217 207.15658724 1795.11551851 210.63839722 1788.35058594 C211.73122913 1786.22402653 212.81372927 1784.09254383 213.89282227 1781.95898438 C222.32491047 1765.29948659 230.87541812 1748.75887214 240.32128906 1732.64648438 C242.36454013 1729.12980208 244.35065735 1725.58185677 246.34033203 1722.03466797 C251.84264006 1712.22605956 257.47906563 1702.50198626 263.1875 1692.8125 C269.74643544 1681.67715858 276.14026144 1670.46104686 282.41796875 1659.1640625 C284.60538999 1655.22836383 286.81530521 1651.30703903 289.05078125 1647.3984375 C295.25986661 1636.53601283 301.21573642 1625.581798 306.94335938 1614.45751953 C310.47479221 1607.60658243 314.09827537 1600.81596678 317.8125 1594.0625 C322.97394668 1584.67017837 327.96092654 1575.19541401 332.890625 1565.6796875 C334.6456169 1562.29506027 336.42101145 1558.92401303 338.234375 1555.5703125 C377.849389 1482.1322839 405.43118846 1401.26426988 425.20568848 1320.40783691 C425.7590106 1318.15074428 426.3181175 1315.89513933 426.87792969 1313.63964844 C436.53537693 1274.57802133 443.02903961 1234.9427292 447.4432373 1194.96142578 C447.75706537 1192.12361082 448.07619734 1189.28642158 448.39550781 1186.44921875 C453.43327522 1141.341619 457.03214954 1096.08507534 460.65137672 1050.8461895 C461.81004133 1036.3760069 463.02933053 1021.91404212 464.35759163 1007.45840836 C472.50631627 918.72161052 473.08003464 830.67391059 469.87774658 687.83813477 C469.76599756 684.64466482 469.6698692 681.45123457 469.58440113 678.25696182 C469.53121313 676.27270012 469.47429407 674.28853959 469.41734314 672.30438232 C469.34765174 669.85635328 469.28377401 667.40814768 469.22731018 664.95977783 C468.90303597 654.14447292 467.37378602 643.97474119 463.8125 633.75 C463.36233521 632.43334351 463.36233521 632.43334351 462.90307617 631.09008789 C453.4906153 603.92065308 443.16402439 576.56649978 429.74511719 551.09228516 C428.67541563 549.0447357 427.63781099 546.98263629 426.6015625 544.91796875 C416.77321661 525.54053871 405.43496615 506.88421058 391.99609375 489.79833984 C390.17158107 487.43977114 388.46661761 485.00023772 386.75 482.5625 C382.70946958 476.96791942 378.21974547 471.80412561 373.6953125 466.6015625 C371.12496116 463.64111282 368.64436856 460.61817523 366.1875 457.5625 C362.15314322 452.59094237 357.88521916 447.88972478 353.5234375 443.20703125 C351.47236929 440.99998827 349.49823463 438.73864969 347.53515625 436.453125 C343.18116043 431.45775575 338.506923 426.79829281 333.8125 422.125 C332.95720703 421.26583984 332.10191406 420.40667969 331.22070312 419.52148438 C326.2258519 414.53425306 321.12166163 409.76457511 315.75 405.1875 C314.63208412 404.2143778 313.51486862 403.24045027 312.3984375 402.265625 C304.37522427 395.3151635 296.19682559 388.61676501 287.75 382.1875 C287.04246582 381.64867187 286.33493164 381.10984375 285.60595703 380.5546875 C267.1981682 366.60854867 247.99141081 354.29747494 227.75 343.1875 C226.87601563 342.70458496 226.00203125 342.22166992 225.1015625 341.72412109 C202.08561332 329.08981615 177.79459303 318.12549182 152.75 310.1875 C151.89841309 309.90890137 151.04682617 309.63030273 150.16943359 309.34326172 C65.08586691 281.5485756 -24.01717423 283.5530845 -173.75366211 336.90087891 C-195.3869722 347.98403738 -215.25734888 361.04424458 -234.25 376.1875 C-234.84651367 376.65945801 -235.44302734 377.13141602 -236.05761719 377.61767578 C-242.69490574 382.87983549 -248.98940549 388.48662752 -255.25 394.1875 C-256.72420418 395.52631808 -258.20299435 396.86011356 -259.6875 398.1875 C-260.30496094 398.744375 -260.92242188 399.30125 -261.55859375 399.875 C-263.25 401.1875 -263.25 401.1875 -266.25 402.1875 C-266.25 402.8475 -266.25 403.5075 -266.25 404.1875 C-267.6484375 405.5625 -267.6484375 405.5625 -269.625 407.1875 C-277.49087905 413.90193644 -284.45964801 421.20029821 -290.90625 429.28125 C-292.98634193 431.86056399 -295.11974957 434.3725626 -297.28759766 436.87719727 C-303.42790325 443.99519714 -308.93717978 451.43743145 -314.25 459.1875 C-314.65041504 459.76693359 -315.05083008 460.34636719 -315.46337891 460.94335938 C-359.2037669 524.43122016 -376.40403473 592.55971258 -388.79406738 667.53382874 C-389.69344553 672.95601235 -390.64470263 678.35746894 -391.70703125 683.75 C-398.16280492 717.93092066 -395.48195303 754.97624422 -390.25 789.1875 C-389.98509766 790.96326416 -389.98509766 790.96326416 -389.71484375 792.77490234 C-384.78296008 824.80018031 -374.93458872 855.68898218 -364.25 886.1875 C-363.98469482 886.94627441 -363.71938965 887.70504883 -363.44604492 888.48681641 C-355.93439138 909.94284283 -347.97233994 931.1926863 -339.25 952.1875 C-338.88600098 953.06486816 -338.52200195 953.94223633 -338.14697266 954.84619141 C-319.66984011 998.93750768 -292.31798324 1040.02382762 -260.98828125 1076.015625 C-258.46722403 1078.91637536 -256.03779464 1081.88330367 -253.625 1084.875 C-249.77245236 1089.62089202 -245.71834989 1094.14479797 -241.578125 1098.640625 C-239.63199408 1100.76961386 -237.74426568 1102.92906653 -235.875 1105.125 C-232.82673783 1108.61899862 -229.63160979 1111.95126794 -226.375 1115.25 C-225.86251709 1115.77110352 -225.35003418 1116.29220703 -224.82202148 1116.82910156 C-221.72562163 1119.91228776 -218.57891984 1122.43223786 -214.9375 1124.875 C-212.765625 1126.453125 -212.765625 1126.453125 -211.25 1128.1875 C-210.81154517 1131.42371423 -211.28689847 1134.08729728 -212.25 1137.1875 C-215.70422115 1138.33890705 -216.05549071 1138.11497611 -219.1875 1136.6328125 C-219.98542969 1136.25672852 -220.78335937 1135.88064453 -221.60546875 1135.49316406 C-242.95741245 1124.95123322 -263.4268423 1113.36507188 -283.25 1100.1875 C-284.01070801 1099.68347656 -284.77141602 1099.17945313 -285.55517578 1098.66015625 C-297.5450506 1090.68513688 -308.9965693 1082.16756909 -320.25 1073.1875 C-321.23871094 1072.40246094 -322.22742188 1071.61742187 -323.24609375 1070.80859375 C-324.84826116 1069.53135889 -326.44751145 1068.25045074 -328.04296875 1066.96484375 C-329.56119643 1065.74220022 -331.08497143 1064.52642344 -332.61328125 1063.31640625 C-342.34440986 1055.60289601 -351.79620088 1047.58273785 -360.98828125 1039.234375 C-363.68340399 1036.79526565 -366.42096154 1034.40825588 -369.1640625 1032.0234375 C-372.53035988 1029.06059149 -375.83723222 1026.03197831 -379.1484375 1023.0078125 C-381.11723421 1021.15073333 -381.11723421 1021.15073333 -383.25 1020.1875 C-383.25 1019.5275 -383.25 1018.8675 -383.25 1018.1875 C-383.83265625 1017.93355469 -384.4153125 1017.67960937 -385.015625 1017.41796875 C-387.49188033 1016.05429667 -389.05520626 1014.54524797 -391 1012.5 C-393.53542624 1009.84206367 -396.15745203 1007.38082781 -398.94042969 1004.98828125 C-402.97456029 1001.47047667 -406.80651123 997.79210377 -410.59375 994.01171875 C-411.24831177 993.36048538 -411.90287354 992.70925201 -412.57727051 992.0382843 C-413.94311157 990.6774596 -415.30764428 989.31532052 -416.67089844 987.9519043 C-418.76739269 985.85762569 -420.87179814 983.77150998 -422.9765625 981.68554688 C-424.30777923 980.3572593 -425.638526 979.02850051 -426.96875 977.69921875 C-427.59986694 977.07528732 -428.23098389 976.4513559 -428.88122559 975.80851746 C-433.25 971.41635912 -433.25 971.41635912 -433.25 969.1875 C-433.91 969.1875 -434.57 969.1875 -435.25 969.1875 C-436.70659977 967.57367052 -438.09048951 965.89386784 -439.4375 964.1875 C-442.15036737 960.79533411 -444.86294128 957.43290559 -447.75 954.1875 C-451.21357026 950.27112354 -454.50444818 946.22542457 -457.80078125 942.16796875 C-459.93770585 939.5675326 -462.10535307 937.00041946 -464.29345703 934.44335938 C-487.9284276 906.79334126 -508.03783082 876.18984028 -525.25 844.1875 C-525.99636719 842.80546387 -525.99636719 842.80546387 -526.7578125 841.39550781 C-555.64423093 787.66036614 -570.63061626 735.75703923 -573.34765625 675.03125 C-573.38971884 674.11203199 -573.43178143 673.19281399 -573.47511864 672.24574089 C-574.35016978 652.81101876 -574.60688352 633.39649014 -574.56745148 613.94412613 C-574.56237984 611.18462032 -574.5609468 608.42512899 -574.55999756 605.6656189 C-574.53815178 575.59306502 -573.89303095 545.55444812 -572.875 515.5 C-572.82749289 514.09582762 -572.82749289 514.09582762 -572.77902603 512.66328812 C-572.41257186 501.91185265 -572.01305628 491.16202491 -571.5772028 480.41318035 C-571.34295272 474.61654634 -571.12701653 468.8194861 -570.92054939 463.02179813 C-570.77184428 458.91614041 -570.61217722 454.81095347 -570.45017624 450.70580101 C-570.37515344 448.75184242 -570.30434323 446.79771665 -570.23814774 444.8434391 C-569.88846513 434.61416226 -569.39132555 425.01829166 -566.25 415.1875 C-566.00253021 414.35400024 -565.75506042 413.52050049 -565.50009155 412.66174316 C-564.81365327 410.3626774 -564.07333717 408.0880035 -563.3125 405.8125 C-563.02238037 404.94455811 -562.73226074 404.07661621 -562.43334961 403.18237305 C-553.87221972 378.16203215 -543.35092466 353.68984206 -531.25 330.1875 C-530.88181152 329.4651416 -530.51362305 328.7427832 -530.13427734 327.99853516 C-520.79552722 309.70438605 -510.37578078 292.15703202 -499 275.0625 C-498.63003906 274.50522217 -498.26007813 273.94794434 -497.87890625 273.3737793 C-492.59406423 265.43358628 -487.03855478 257.76580726 -481.25 250.1875 C-480.75467773 249.53362305 -480.25935547 248.87974609 -479.74902344 248.20605469 C-467.81292459 232.46234964 -455.11849633 217.36241416 -441.70703125 202.859375 C-439.08540902 200.00851712 -436.53242265 197.10668731 -433.9921875 194.18359375 C-428.81512552 188.25202722 -423.57847467 182.4240334 -417.9453125 176.921875 C-415.42141844 174.33982669 -413.12710687 171.57147513 -410.828125 168.7890625 C-409.25 167.1875 -409.25 167.1875 -406.25 166.1875 C-406.25 165.5275 -406.25 164.8675 -406.25 164.1875 C-404.921875 162.84765625 -404.921875 162.84765625 -403 161.25 C-400.31723221 158.98070538 -397.68344885 156.68079006 -395.1171875 154.28125 C-394.58125977 153.78101318 -394.04533203 153.28077637 -393.49316406 152.76538086 C-392.42155617 151.7618398 -391.3531417 150.7548769 -390.28808594 149.74438477 C-386.47069869 146.1875 -386.47069869 146.1875 -384.25 146.1875 C-384.25 145.5275 -384.25 144.8675 -384.25 144.1875 C-382.2020715 142.4425195 -380.14426555 140.8067528 -378 139.1875 C-376.70324507 138.19033734 -375.40769164 137.19161046 -374.11328125 136.19140625 C-373.46053223 135.68754395 -372.8077832 135.18368164 -372.13525391 134.66455078 C-369.43133241 132.54609377 -366.81168845 130.34168395 -364.1875 128.125 C-352.46964004 118.3164891 -340.17698689 109.4725748 -327.59960938 100.80810547 C-325.57630649 99.41256468 -323.56092342 98.00648424 -321.546875 96.59765625 C-310.55586957 89.00279187 -298.90529064 82.4952914 -287.28955078 75.91503906 C-284.70344744 74.4452184 -282.12863365 72.95856623 -279.55859375 71.4609375 C-213.54560619 33.35544652 -138.58239547 15.27452718 -63.875 4.375 C-62.32182571 4.14512894 -62.32182571 4.14512894 -60.73727417 3.91061401 C-40.4365467 0.92400863 -20.50176612 -0.02655846 0 0 Z " fill="#FFFFFF" transform="translate(946.25,183.8125)"/>
</svg>
