<?xml version="1.0" encoding="UTF-8"?>
<svg version="1.1" xmlns="http://www.w3.org/2000/svg" width="1719" height="2015">
<path d="M0 0 C2.42490932 2.17762025 4.80926909 4.39302802 7.19140625 6.6171875 C8.58253161 7.83093804 9.9781195 9.03960003 11.37890625 10.2421875 C18.8111148 16.75280219 25.04814425 23.88010711 31.19140625 31.6171875 C31.98675781 32.59558594 32.78210937 33.57398438 33.6015625 34.58203125 C40.64349233 43.43187333 46.54156286 52.8287757 52.19140625 62.6171875 C52.59246582 63.30796387 52.99352539 63.99874023 53.40673828 64.71044922 C79.27719732 109.79648212 86.40769765 162.78539332 86.44140625 213.9921875 C86.44241837 215.39215469 86.44241837 215.39215469 86.44345093 216.82040405 C86.3350077 312.25551301 53.54979956 407.23766892 -27.80859375 506.6171875 C-28.68773437 507.60074219 -29.566875 508.58429687 -30.47265625 509.59765625 C-41.6138605 521.98016712 -53.74226271 533.28735574 -66.80859375 543.6171875 C-67.94662347 544.54526978 -69.08325794 545.47506466 -70.21875 546.40625 C-120.46757448 587.43842987 -180.22068743 614.36131841 -241.0390625 635.6328125 C-241.97407404 635.95984571 -241.97407404 635.95984571 -242.9279747 636.29348564 C-249.7861072 638.69075071 -256.64998941 641.07012706 -263.52246094 643.42602539 C-295.43558418 652.40054299 -295.43558418 652.40054299 -320.80859375 671.6171875 C-322.03184053 674.75175737 -322.05093042 675.97095639 -320.87109375 679.1171875 C-314.43185885 686.92232072 -303.70444525 689.46125687 -294.51367188 692.73950195 C-278.47802633 698.49025866 -265.8307658 705.42210907 -257.21875 720.58984375 C-249.25301769 737.69079261 -253.02356864 757.5542267 -259.06689453 774.60693359 C-269.50578904 802.89984256 -286.23567538 828.31700281 -303.80859375 852.6171875 C-304.85720572 854.07781289 -305.90537425 855.53875672 -306.953125 857 C-312.53473079 864.76965629 -318.18164429 872.48872772 -323.87109375 880.1796875 C-328.7834517 886.8220821 -333.60454412 893.51982799 -338.34667969 900.28466797 C-341.36123491 904.58135557 -344.4161949 908.84488771 -347.50683594 913.0871582 C-355.52204057 924.09776069 -363.21225488 935.31444089 -370.80859375 946.6171875 C-371.25388428 947.27964478 -371.6991748 947.94210205 -372.15795898 948.62463379 C-417.10166662 1015.51981858 -459.13838957 1084.42973964 -488.80859375 1159.6171875 C-489.21980469 1160.65713867 -489.63101562 1161.69708984 -490.0546875 1162.76855469 C-501.88742241 1193.05572404 -511.21543527 1226.12064451 -513.80859375 1258.6171875 C-513.8741748 1259.39803711 -513.93975586 1260.17888672 -514.00732422 1260.98339844 C-517.1266288 1300.2552187 -510.30663962 1341.4140994 -484.80859375 1372.6171875 C-480.96715724 1377.10364598 -476.91294071 1381.37212007 -472.80859375 1385.6171875 C-472.195 1386.28234375 -471.58140625 1386.9475 -470.94921875 1387.6328125 C-446.85476763 1413.15861715 -409.78623773 1428.13636315 -375.13037109 1429.74121094 C-323.36173944 1431.17260167 -273.75307978 1414.4244804 -235.77197266 1378.70166016 C-216.49117356 1360.29152257 -201.090741 1339.2909908 -188.80859375 1315.6171875 C-188.31214355 1314.66231445 -187.81569336 1313.70744141 -187.30419922 1312.72363281 C-168.09624747 1275.34693321 -158.31761496 1236.0310848 -158.49609375 1194.0546875 C-158.4982489 1193.13654266 -158.50040405 1192.21839783 -158.50262451 1191.27243042 C-158.61745058 1160.6746029 -163.7615225 1131.83586917 -173.35620117 1102.75219727 C-173.68982666 1101.72795654 -174.02345215 1100.70371582 -174.3671875 1099.6484375 C-174.66939209 1098.74673828 -174.97159668 1097.84503906 -175.28295898 1096.91601562 C-175.80859375 1094.6171875 -175.80859375 1094.6171875 -174.80859375 1091.6171875 C-171.13561356 1098.5200041 -168.4166787 1105.650238 -165.74609375 1112.9921875 C-165.51037659 1113.63967957 -165.27465942 1114.28717163 -165.03179932 1114.95428467 C-147.92729109 1162.06349292 -134.85923917 1210.77627781 -128.80859375 1260.6171875 C-128.6914502 1261.58108398 -128.57430664 1262.54498047 -128.45361328 1263.53808594 C-122.08531104 1318.8183559 -129.34626472 1375.23822081 -155.80859375 1424.6171875 C-156.12795898 1425.21724609 -156.44732422 1425.81730469 -156.77636719 1426.43554688 C-172.59243886 1455.88394834 -196.78881246 1483.0580368 -223.80859375 1502.6171875 C-225.109486 1503.58578843 -226.41026263 1504.55454468 -227.7109375 1505.5234375 C-262.52578515 1531.10456604 -303.20382234 1547.3483965 -345.49609375 1555.3671875 C-346.53942871 1555.56602539 -347.58276367 1555.76486328 -348.65771484 1555.96972656 C-366.22895608 1559.13292979 -383.60665609 1559.99518972 -401.43359375 1559.9296875 C-402.49129974 1559.92753235 -403.54900574 1559.9253772 -404.63876343 1559.92315674 C-420.20885384 1559.87227457 -435.47193553 1559.56263842 -450.80859375 1556.6171875 C-451.90316895 1556.40787598 -452.99774414 1556.19856445 -454.12548828 1555.98291016 C-503.72709529 1546.20377374 -547.8946914 1525.58864418 -583.80859375 1489.6171875 C-584.906875 1488.58851563 -584.906875 1488.58851563 -586.02734375 1487.5390625 C-610.75192847 1463.99990308 -627.64839747 1431.46591252 -638.80859375 1399.6171875 C-639.28570801 1398.25787109 -639.28570801 1398.25787109 -639.77246094 1396.87109375 C-667.72595464 1315.43500133 -650.14464462 1228.64324887 -613.47509766 1153.04394531 C-611.93054177 1149.89612379 -610.37335871 1146.75500951 -608.80859375 1143.6171875 C-608.29425781 1142.5844873 -607.77992188 1141.55178711 -607.25 1140.48779297 C-596.08519359 1118.21734527 -583.29869616 1097.14220478 -569.49609375 1076.4296875 C-569.03800323 1075.74221436 -568.57991272 1075.05474121 -568.10794067 1074.34643555 C-561.8493252 1064.97501824 -555.41185222 1055.74865997 -548.80859375 1046.6171875 C-548.18605713 1045.75359619 -547.56352051 1044.89000488 -546.92211914 1044.00024414 C-539.85424334 1034.22937653 -532.56625169 1024.69761156 -524.8984375 1015.390625 C-521.93019461 1011.78507474 -519.05002687 1008.11634571 -516.18359375 1004.4296875 C-511.34481611 998.22724641 -506.30863634 992.21367469 -501.19238281 986.23925781 C-499.7834033 984.58765938 -498.38443245 982.92807733 -496.98828125 981.265625 C-492.04090174 975.3775224 -487.02695768 969.57304566 -481.85546875 963.87890625 C-479.98349685 961.81044875 -478.13995985 959.72157836 -476.30859375 957.6171875 C-472.95240919 953.76608172 -469.53985182 949.96783936 -466.1171875 946.17578125 C-464.62740095 944.52466417 -463.14022498 942.87118606 -461.65625 941.21484375 C-455.44381662 934.28343074 -449.14325184 927.43673421 -442.80859375 920.6171875 C-442.21208008 919.97410645 -441.61556641 919.33102539 -441.00097656 918.66845703 C-433.67520115 910.77901345 -426.29142729 902.98547314 -418.58984375 895.4609375 C-416.562508 893.38804364 -414.69028477 891.32915843 -412.81835938 889.12695312 C-408.56041334 884.2437279 -403.99100828 879.6857559 -399.39303589 875.12646484 C-397.83385648 873.5802601 -396.27800754 872.03076854 -394.72290039 870.48046875 C-390.86293572 866.63374525 -386.99749473 862.79254034 -383.13220215 858.95117188 C-379.85409933 855.69293054 -376.57814383 852.4325576 -373.30490112 849.16943359 C-371.78549909 847.65642698 -370.26307672 846.1465078 -368.74047852 844.63671875 C-364.10276951 840.02325484 -359.60604912 835.35151151 -355.34912109 830.38256836 C-352.98949051 827.67852894 -350.46049663 825.16315681 -347.90234375 822.6484375 C-347.10975159 821.86152527 -347.10975159 821.86152527 -346.30114746 821.05871582 C-344.08239791 818.85602635 -341.85760602 816.65947913 -339.63330078 814.46240234 C-334.02014755 808.91181873 -328.44021512 803.38434406 -323.31640625 797.37011719 C-321.32716946 795.05750058 -319.2308861 792.85766185 -317.12939453 790.64746094 C-310.18784647 783.33261856 -303.85128717 775.68582757 -297.80859375 767.6171875 C-297.13957031 766.73289062 -296.47054688 765.84859375 -295.78125 764.9375 C-289.96530224 756.97079694 -283.62992203 747.80147546 -283.80859375 737.6171875 C-285.64399892 732.35569267 -290.11612313 730.13979932 -294.80859375 727.6171875 C-297.81625391 726.3782261 -300.86827948 725.44129726 -303.99609375 724.5546875 C-305.30465332 724.17691162 -305.30465332 724.17691162 -306.63964844 723.79150391 C-334.75375001 715.91492515 -364.74695647 713.28876894 -393.80859375 711.6171875 C-394.5396936 711.5744873 -395.27079346 711.53178711 -396.02404785 711.48779297 C-408.95255168 710.74965476 -421.84614256 710.45824646 -434.79492188 710.48681641 C-437.70317701 710.49222391 -440.61128043 710.48680162 -443.51953125 710.48046875 C-453.07295087 710.4790528 -462.5012009 710.65432444 -472.01220703 711.59814453 C-474.80859375 711.6171875 -474.80859375 711.6171875 -477.80859375 709.6171875 C-477.80859375 707.4921875 -477.80859375 707.4921875 -476.80859375 704.6171875 C-471.66677499 699.7740013 -465.39122448 696.60128122 -459.05859375 693.6171875 C-457.57383545 692.91625977 -457.57383545 692.91625977 -456.05908203 692.20117188 C-430.57454016 680.43255003 -403.84851487 671.41771013 -377.43774414 662.00244141 C-239.10343923 612.80176845 -239.10343923 612.80176845 -113.80859375 533.6171875 C-112.82890625 532.83601562 -111.84921875 532.05484375 -110.83984375 531.25 C-108.13744402 529.06788987 -105.47120237 526.84760458 -102.80859375 524.6171875 C-101.81601563 523.81023438 -100.8234375 523.00328125 -99.80078125 522.171875 C-91.96213573 515.71568581 -84.69108191 508.71310609 -77.49609375 501.5546875 C-76.57723389 500.64501221 -75.65837402 499.73533691 -74.71166992 498.7980957 C-68.65117727 492.71024191 -63.15775783 486.33294084 -57.80859375 479.6171875 C-56.8319204 478.44344601 -55.85201353 477.27237817 -54.8671875 476.10546875 C-16.71161893 430.21720996 9.15404269 373.05344812 20.19140625 314.6171875 C20.46041748 313.20179688 20.46041748 313.20179688 20.73486328 311.7578125 C25.63691048 284.49717267 25.39736342 253.79983177 20.19140625 226.6171875 C20.03043457 225.71581055 19.86946289 224.81443359 19.70361328 223.88574219 C14.43149664 194.76502108 4.39508708 165.88719823 -12.80859375 141.6171875 C-13.54207031 140.56789063 -14.27554688 139.51859375 -15.03125 138.4375 C-25.36487409 124.32580634 -37.94440054 111.88506858 -52.80859375 102.6171875 C-53.42669922 102.22982422 -54.04480469 101.84246094 -54.68164062 101.44335938 C-75.65813847 88.51672568 -100.09351118 80.64996719 -124.83984375 80.37890625 C-125.58479095 80.3691124 -126.32973816 80.35931854 -127.09725952 80.34922791 C-144.38869159 80.1689148 -160.88365287 80.67752899 -177.80859375 84.6171875 C-179.24066162 84.93864746 -179.24066162 84.93864746 -180.70166016 85.26660156 C-229.62668907 96.43506638 -274.87152329 123.03181417 -311.80859375 156.6171875 C-312.46408203 157.21096191 -313.11957031 157.80473633 -313.79492188 158.41650391 C-323.37221022 167.07941371 -323.37221022 167.07941371 -332.08984375 176.5859375 C-333.8763226 178.69723069 -335.75058218 180.71211103 -337.64282227 182.72851562 C-343.5915177 189.08856248 -348.9997585 195.76324085 -354.30029297 202.66748047 C-355.90239759 204.73844317 -357.52701776 206.79016448 -359.15625 208.83984375 C-367.5544273 219.44134068 -375.33222619 230.34958925 -382.80859375 241.6171875 C-383.38689941 242.48408203 -383.96520508 243.35097656 -384.56103516 244.24414062 C-400.41327662 268.05478405 -415.09184402 292.51794889 -428.80859375 317.6171875 C-429.3711084 318.64457031 -429.93362305 319.67195313 -430.51318359 320.73046875 C-443.72619173 344.91980026 -456.53780242 369.34389691 -468.24755859 394.29931641 C-469.72228375 397.43374164 -471.2064998 400.56344089 -472.69421387 403.69171143 C-481.95162208 423.15541989 -481.95162208 423.15541989 -490.953125 442.73828125 C-491.28591461 443.47459778 -491.61870422 444.21091431 -491.96157837 444.96954346 C-493.52829717 448.44057492 -495.08763916 451.91467001 -496.63574219 455.39404297 C-499.5998811 462.02236683 -502.70583464 468.56030788 -506.0546875 475.00390625 C-506.3842897 475.65245071 -506.71389191 476.30099518 -507.05348206 476.9691925 C-509.45566568 481.49954481 -509.45566568 481.49954481 -512.80859375 482.6171875 C-512.33187843 474.26863001 -510.78052916 466.46692797 -508.73828125 458.37109375 C-508.2692186 456.47600571 -508.2692186 456.47600571 -507.79067993 454.54263306 C-506.94373017 451.12814308 -506.08472572 447.71680742 -505.2215271 444.30639267 C-504.67927688 442.16262088 -504.1395709 440.01822126 -503.6003418 437.87368774 C-483.4697907 357.91427333 -461.02374736 275.00750614 -424.80859375 200.6171875 C-424.26090332 199.48087891 -423.71321289 198.34457031 -423.14892578 197.17382812 C-404.26419198 158.10047876 -381.23570653 121.27008662 -353.80859375 87.6171875 C-353.12667969 86.76125 -352.44476562 85.9053125 -351.7421875 85.0234375 C-346.606888 78.62957623 -341.17296647 72.59311862 -335.578125 66.60546875 C-333.44942983 64.32325166 -331.39044996 61.99732199 -329.37109375 59.6171875 C-321.88574504 50.97601288 -313.53392053 42.98938873 -304.80859375 35.6171875 C-303.79569434 34.73051359 -302.78409409 33.84235449 -301.7734375 32.953125 C-261.00679185 -2.74120012 -211.49983005 -29.1760631 -157.80859375 -38.3828125 C-156.51091064 -38.62185303 -156.51091064 -38.62185303 -155.18701172 -38.86572266 C-100.66669426 -48.68564999 -42.68066754 -36.21030208 0 0 Z " fill="#5A1114" transform="translate(1567.80859375,406.3828125)"/>
<path d="M0 0 C0.81463715 -0.00067474 1.62927429 -0.00134949 2.46859741 -0.00204468 C41.62885795 0.04916648 79.64044818 8.40407285 115.4375 24.25 C116.25557129 24.60819824 117.07364258 24.96639648 117.91650391 25.33544922 C142.44765087 36.17041104 164.96534211 50.78850775 184.4375 69.25 C185.70376796 70.31793683 186.97440032 71.38072705 188.25 72.4375 C198.90655385 81.73736732 208.24654719 92.74867871 216.4375 104.25 C216.83356445 104.80558594 217.22962891 105.36117187 217.63769531 105.93359375 C251.60623915 154.13995845 265.19698613 209.75837483 273.4375 267.25 C273.6835498 268.96147217 273.6835498 268.96147217 273.93457031 270.70751953 C286.85513064 366.4668622 255.31115012 468.28495866 207.4375 550.25 C206.92638672 551.12672363 206.41527344 552.00344727 205.88867188 552.90673828 C203.09068367 557.69925068 200.27383589 562.48008975 197.4375 567.25 C200.97379016 563.76459171 204.35488065 560.18342138 207.6875 556.5 C229.5063191 532.64641682 258.3024158 511.10251281 291.79736328 509.04345703 C295.43004976 508.94649831 299.05356837 508.92086438 302.6875 508.9375 C303.97293701 508.94313965 305.25837402 508.9487793 306.58276367 508.95458984 C336.60735824 509.33910567 361.02415101 521.99978716 381.80859375 543.31640625 C396.76994033 560.01175733 404.62654718 580.42363383 408.4375 602.25 C409.32888672 600.86941406 409.32888672 600.86941406 410.23828125 599.4609375 C419.47993499 585.28687682 429.73057308 572.45898595 441.4375 560.25 C441.9015625 559.75870605 442.365625 559.26741211 442.84375 558.76123047 C463.89167991 536.52486986 493.88923815 521.08448653 524.88671875 520.01171875 C544.9436572 519.6524371 562.51375687 521.97408796 580.4375 531.25 C581.05882812 531.5701709 581.68015625 531.8903418 582.3203125 532.22021484 C590.35314289 536.43198914 597.59627685 541.26661047 604.4375 547.25 C605.40429688 548.07242188 606.37109375 548.89484375 607.3671875 549.7421875 C627.5874094 567.28297142 640.31054759 591.66321211 643.4375 618.25 C643.72935767 623.43861937 643.77800147 628.61719127 643.75 633.8125 C643.74726578 634.8665654 643.74726578 634.8665654 643.74447632 635.94192505 C643.57314161 675.26240354 628.35982032 709.75845943 605.4375 741.25 C604.90946777 741.97622559 604.38143555 742.70245117 603.83740234 743.45068359 C597.63454391 751.93324147 591.21135075 760.21380103 584.4375 768.25 C583.96812012 768.80961426 583.49874023 769.36922852 583.01513672 769.94580078 C577.67563233 776.30137286 572.33942966 782.56191726 566.35742188 788.32910156 C564.54149195 790.14595516 562.8693271 792.01880607 561.203125 793.97265625 C557.4732925 798.26584629 553.5317986 802.30402907 549.5 806.3125 C548.83548828 806.98087891 548.17097656 807.64925781 547.48632812 808.33789062 C544.26756545 811.55040934 541.0105194 814.65970034 537.55859375 817.62109375 C532.59353235 821.90554441 528.03727221 826.58053427 523.4375 831.25 C513.94972185 840.88153237 513.94972185 840.88153237 509.69140625 844.50390625 C503.91830759 849.45662484 498.62168297 854.91720593 493.25561523 860.30151367 C491.37920525 862.18328274 489.49751031 864.05964738 487.61523438 865.93554688 C482.18904037 871.35904535 476.82402236 876.77195392 471.84985352 882.61938477 C469.67174785 885.13408965 467.31783782 887.42567013 464.9375 889.75 C461.27449046 893.36407858 457.7758435 897.05261628 454.4375 900.96875 C452.26846442 903.4428062 450.02904947 905.83912018 447.77636719 908.23681641 C441.71224129 914.696579 435.87808944 921.24819793 430.4375 928.25 C430.00195801 928.80236328 429.56641602 929.35472656 429.11767578 929.92382812 C414.37266441 948.73055596 405.08599063 968.84774756 406.4375 993.25 C409.65897109 1019.21287297 424.39660824 1043.68254549 444.77050781 1059.9921875 C477.61916784 1084.77781967 521.40234416 1092.4036321 561.5625 1087.125 C580.675282 1084.2791243 599.02840944 1079.70527039 616.4375 1071.25 C617.85168213 1070.57155029 617.85168213 1070.57155029 619.29443359 1069.87939453 C640.02814958 1059.82496239 659.3226913 1047.48678212 677.4375 1033.25 C678.5932132 1032.3599796 679.74949822 1031.4707014 680.90625 1030.58203125 C687.22656348 1025.70130711 693.33882343 1020.69217928 699.22265625 1015.28515625 C701.20315997 1013.46532831 703.21376277 1011.69433669 705.25 1009.9375 C718.3440889 998.49326631 731.47823968 986.56423915 742.7109375 973.2578125 C744.54893453 971.12041324 746.45532203 969.05341828 748.37353516 966.98803711 C753.10420703 961.8905656 757.64510187 956.69669143 762.00390625 951.2734375 C763.80719368 949.03307719 765.62597908 946.81232595 767.46484375 944.6015625 C780.93287539 928.34627265 792.50122083 910.93939058 803.6875 893.0625 C804.50057617 891.76578369 804.50057617 891.76578369 805.33007812 890.44287109 C806.3797242 888.76605193 807.42547779 887.08678811 808.46679688 885.40478516 C808.94181641 884.64472168 809.41683594 883.8846582 809.90625 883.1015625 C810.32326172 882.42947754 810.74027344 881.75739258 811.16992188 881.06494141 C812.44289688 879.24227266 813.81932303 877.76866026 815.4375 876.25 C814.81546056 880.15204501 813.62475425 883.31407792 811.91796875 886.87109375 C811.3964624 887.96019043 810.87495605 889.04928711 810.33764648 890.17138672 C809.48988647 891.91186279 809.48988647 891.91186279 808.625 893.6875 C808.19007736 894.58495941 808.19007736 894.58495941 807.74636841 895.50054932 C802.02334187 907.29721989 795.86755118 918.82449073 789.4375 930.25 C788.72110352 931.53583984 788.72110352 931.53583984 787.99023438 932.84765625 C767.06767575 970.38935143 743.00083586 1006.50152934 715.03515625 1039.18359375 C712.71097258 1041.90770986 710.47826416 1044.69669993 708.25 1047.5 C693.36711089 1065.72824648 676.20386131 1084.0211768 657.4375 1098.25 C656.86 1098.71575439 656.2825 1099.18150879 655.6875 1099.66137695 C648.33230565 1105.54119564 640.52214618 1110.7269761 632.6875 1115.9375 C631.95617859 1116.4242218 631.22485718 1116.9109436 630.47137451 1117.41241455 C602.05104656 1136.28558562 573.5037901 1151.04877674 539.4375 1156.25 C538.23480469 1156.45496094 537.03210938 1156.65992188 535.79296875 1156.87109375 C491.30399117 1163.40696178 443.80690279 1154.90716355 407.22460938 1127.92407227 C405.61938787 1126.71188423 404.02816548 1125.48122672 402.4375 1124.25 C401.49777344 1123.53328125 400.55804687 1122.8165625 399.58984375 1122.078125 C372.72011025 1100.8916301 352.89968434 1071.03899318 348.5234375 1036.66357422 C344.58825224 1002.82800813 351.72459068 968.54541211 372.96484375 941.3125 C373.78082031 940.301875 374.59679687 939.29125 375.4375 938.25 C375.84500488 937.73953125 376.25250977 937.2290625 376.67236328 936.703125 C388.01252723 922.601005 401.05374851 909.49201561 414.76660156 897.70483398 C416.7538468 895.97456012 418.60766076 894.14519064 420.4375 892.25 C423.6590855 888.97797872 427.02342145 885.95683945 430.50390625 882.96484375 C432.96913673 880.77850803 435.25678637 878.44379642 437.56347656 876.09277344 C439.36767063 874.31866494 441.22588669 872.66059622 443.14453125 871.01171875 C447.4099858 867.30284086 451.52521992 863.45269448 455.625 859.5625 C460.72452607 854.74261283 465.83412774 849.9362572 471 845.1875 C476.48003454 840.14717361 481.91857278 835.06384007 487.34472656 829.96557617 C490.68860921 826.82436524 494.0374778 823.68905015 497.40234375 820.5703125 C504.07656037 814.37996608 510.62538616 808.111961 517.01953125 801.6328125 C519.13540973 799.54769801 521.29468492 797.60333592 523.5625 795.6875 C527.41807883 792.38831568 530.73568846 788.72297669 534.0859375 784.91796875 C536.49915341 782.18005103 538.96430428 779.49626192 541.4375 776.8125 C546.31032116 771.44566011 550.93750861 765.93231396 555.4375 760.25 C555.89962891 759.6710498 556.36175781 759.09209961 556.83789062 758.49560547 C575.91117263 734.50401647 594.46311747 708.21747537 602.4375 678.25 C602.83195313 676.78626953 602.83195313 676.78626953 603.234375 675.29296875 C608.41081379 651.96401824 602.61516926 623.63924615 590.09814453 603.52392578 C576.59661427 583.00803702 556.58245822 571.84007776 532.73828125 566.6640625 C506.48586068 563.37085945 482.77045892 569.49827052 461.77734375 585.55859375 C446.18512301 597.93676841 434.55659496 612.75722682 423.10351562 628.91064453 C420.90865085 631.99258976 418.68277521 635.05147143 416.45727539 638.11132812 C411.00847167 645.61040903 405.68706977 653.18437289 400.4609375 660.83984375 C396.06873017 667.26625769 391.598059 673.63852526 387.140625 680.01977539 C383.72192195 684.92474649 380.36398486 689.84990826 377.125 694.875 C373.15840101 700.8947945 368.50138862 706.24469613 363.78369141 711.67724609 C361.69667512 714.11550488 359.69689016 716.62267597 357.6875 719.125 C345.88056975 733.58375416 345.88056975 733.58375416 337.375 736.1875 C333.73946493 736.26485181 332.25059788 735.51610663 329.4375 733.25 C327.30344632 729.7445785 327.13140915 727.00933169 327.71875 722.91796875 C329.99644873 714.46325011 335.48583722 707.08837993 340.375 699.9375 C356.4756224 676.27266318 366.74574692 646.34474607 361.7109375 617.55078125 C358.91974955 603.97756466 353.67909859 592.38311629 345.4375 581.25 C344.84324219 580.445625 344.24898437 579.64125 343.63671875 578.8125 C334.36471755 567.37637004 319.90670229 559.81982272 305.47265625 557.56640625 C282.42239602 555.16348337 258.36161843 561.76958059 240.125 576.25 C238.2042276 577.89597982 236.31208108 579.55330319 234.4375 581.25 C233.57415039 582.03093018 233.57415039 582.03093018 232.69335938 582.82763672 C224.55580863 590.24303309 216.67602465 597.92029133 208.875 605.6875 C208.13757568 606.42025146 207.40015137 607.15300293 206.64038086 607.90795898 C202.63840868 611.92177806 198.83694184 616.03983514 195.13696289 620.33227539 C192.37704556 623.44664841 189.40986987 626.34023235 186.4375 629.25 C182.09485653 633.54241971 177.89074215 637.86534573 173.94140625 642.52734375 C172.34644002 644.35430507 170.66732158 646.05059287 168.9375 647.75 C165.96773979 650.67386988 163.23243621 653.73581554 160.51171875 656.890625 C157.91120701 659.84864589 155.24012564 662.73686393 152.5625 665.625 C142.55990484 676.42251368 132.83194091 687.43835543 123.26464844 698.62182617 C118.94270564 703.6705441 114.58866554 708.69081892 110.22851562 713.70654297 C106.71799807 717.75204658 103.25480482 721.83392658 99.8125 725.9375 C94.53786288 732.2123332 89.05841964 738.2828973 83.4375 744.25 C82.73496094 745.02214844 82.03242188 745.79429687 81.30859375 746.58984375 C79.4375 748.25 79.4375 748.25 76.4375 748.25 C76.94314914 742.97102298 78.26696789 738.89193504 80.75 734.1875 C81.10046387 733.506875 81.45092773 732.82625 81.81201172 732.125 C83.00551275 729.8251148 84.21885232 727.53665501 85.4375 725.25 C85.87529785 724.42516113 86.3130957 723.60032227 86.76416016 722.75048828 C92.40893964 712.15779102 98.28873107 701.71988767 104.375 691.375 C110.82414421 680.40976775 116.95497051 669.29715742 122.93212891 658.06835938 C124.33088347 655.44960772 125.74693087 652.84108002 127.16796875 650.234375 C170.38596037 570.27272882 196.01653089 479.15494587 187.53076172 265.10839844 C179.5732091 238.75390916 168.15507671 213.50843475 150.4375 192.25 C149.77161865 191.43402344 149.77161865 191.43402344 149.09228516 190.6015625 C116.35543317 150.53728682 73.37071919 124.07640764 21.61328125 117.78515625 C18.55012186 117.51542086 15.51065717 117.34525959 12.4375 117.25 C11.00277344 117.19005859 11.00277344 117.19005859 9.5390625 117.12890625 C-33.00386817 116.19930494 -75.47194945 130.10128086 -107.5625 158.25 C-108.41199219 158.97832031 -109.26148438 159.70664063 -110.13671875 160.45703125 C-144.538691 190.53900086 -163.74112997 236.62520303 -166.97265625 281.6796875 C-169.39110834 320.83465343 -160.60837631 357.13936211 -143.5625 392.25 C-143.21638672 392.96816895 -142.87027344 393.68633789 -142.51367188 394.42626953 C-134.54019896 410.76281106 -124.4125638 426.4587829 -112.5625 440.25 C-111.6174709 441.3884781 -110.67355236 442.52787854 -109.73046875 443.66796875 C-104.10125455 450.41712665 -98.40798569 456.68372123 -91.5625 462.25 C-91.8925 463.24 -92.2225 464.23 -92.5625 465.25 C-116.87207392 454.15045178 -138.84329385 437.11862597 -158.5625 419.25 C-159.42464111 418.47245361 -159.42464111 418.47245361 -160.30419922 417.67919922 C-170.2463214 408.68931204 -179.91340854 399.59108314 -188.28515625 389.0859375 C-190.62889842 386.16731518 -193.06064034 383.33894276 -195.5 380.5 C-234.37530355 333.81358446 -251.48019647 272.07310801 -246.09375 212.046875 C-245.51749845 207.05392521 -244.6277661 202.1599866 -243.5625 197.25 C-243.36382324 196.31510742 -243.16514648 195.38021484 -242.96044922 194.41699219 C-233.93399285 153.05080486 -214.75324265 114.15784516 -185.5625 83.25 C-184.47424193 81.98338134 -183.39081815 80.71259154 -182.3125 79.4375 C-173.88658849 69.80231415 -164.65688407 61.11224562 -154.5625 53.25 C-153.62664062 52.48558594 -152.69078125 51.72117188 -151.7265625 50.93359375 C-116.47344935 22.70391574 -73.15126363 6.546949 -28.5625 1.25 C-27.76626221 1.15428711 -26.97002441 1.05857422 -26.1496582 0.95996094 C-17.45182806 0.03979993 -8.73655946 0.0065371 0 0 Z " fill="#5A1114" transform="translate(296.5625,75.75)"/>
</svg>
